<?xml version="1.0" encoding="UTF-8"?>
<svg version="1.1" xmlns="http://www.w3.org/2000/svg" width="369" height="413">
<path d="M0 0 C2.475 0.495 2.475 0.495 5 1 C5.00938567 1.66131204 5.01877134 2.32262407 5.02844143 3.00397587 C5.25796774 19.15726928 5.49185537 35.31049322 5.73049068 51.46365452 C5.84579357 59.27546409 5.95966519 67.08728944 6.07006836 74.89916992 C6.16639285 81.71460995 6.26550368 88.53000304 6.36784559 95.34535545 C6.42185009 98.94800649 6.47453733 102.55066507 6.5238781 106.15338326 C6.5792536 110.19290267 6.64085496 114.23230573 6.70288086 118.27172852 C6.71798706 119.44274612 6.73309326 120.61376373 6.74865723 121.82026672 C6.80368946 125.21500189 6.89342431 128.60650572 7 132 C7.0154169 132.650027 7.0308338 133.30005399 7.04671788 133.96977878 C7.10042464 135.99630058 7.18143462 138.0201837 7.26856995 140.04551697 C7.31229516 141.25582046 7.35602037 142.46612394 7.40107059 143.71310329 C8.10115445 147.55513093 9.24987973 149.26778017 12 152 C29.26773425 157.75591142 51.38064291 152.10090983 67.1875 144.3125 C69.82621752 142.93271634 72.4181425 141.48309853 75 140 C75.65564941 139.62746094 76.31129883 139.25492188 76.98681641 138.87109375 C87.85784882 132.61209485 97.46489392 125.11626306 107 117 C107.63244629 116.4652002 108.26489258 115.93040039 108.91650391 115.37939453 C114.54002459 110.62147926 120.11035487 105.83489491 125.5 100.8125 C145.66547898 82.93687394 171.78580346 74.55593183 198 71 C198.94875 70.86722656 199.8975 70.73445313 200.875 70.59765625 C214.43659756 69.05078653 228.44798123 69.70933155 242 71 C242 65.39 242 59.78 242 54 C242.99 54 243.98 54 245 54 C246.4296875 55.79296875 246.4296875 55.79296875 247.875 58.1875 C250.28520736 61.96486654 252.61866438 65.01184294 256 68 C256.56589844 68.50789063 257.13179688 69.01578125 257.71484375 69.5390625 C270.41479882 80.21580016 286.06965758 85.83557951 301.55126953 91.14746094 C305.05891485 92.36866707 308.52864205 93.67950678 312 95 C309.25797449 97.74202551 306.37148719 97.74428891 302.6875 98.3125 C284.17520097 101.512875 267.17379583 110.12637989 255.8125 125.375 C252.28366093 130.43135257 249.06348161 135.65051128 246 141 C245.01 140.67 244.02 140.34 243 140 C242.67 134.06 242.34 128.12 242 122 C213.07453834 122.82058047 185.51824233 128.58672941 164.5703125 150.16796875 C161.25828017 154.03200647 158.61011141 158.16966577 157 163 C157.73391968 162.98081009 158.46783936 162.96162018 159.22399902 162.94184875 C166.16720728 162.76314055 173.11062874 162.59981236 180.05458832 162.45341206 C183.62389614 162.37762649 187.19287012 162.29606423 190.76171875 162.20092773 C194.21095759 162.10919852 197.66023009 162.03313032 201.11006165 161.96755028 C203.05552192 161.92658619 205.00062703 161.86973973 206.94567871 161.81257629 C221.25844056 161.57120901 221.25844056 161.57120901 226.54699707 166.41767883 C230.32480426 170.71663006 231.3557653 174.33142916 231.28125 180.00390625 C230.40284589 189.36135005 228.62246891 200.91816908 222 208 C215.78965992 213.04590131 210.07930425 213.13645728 202.33203125 213.359375 C200.61649289 213.42332083 198.9009988 213.48846349 197.18554688 213.5546875 C194.50457894 213.65545922 191.82419557 213.74967919 189.14233398 213.82324219 C176.30587808 214.18827112 166.3834181 215.29313175 156.53125 224.33203125 C149.32035248 232.18675891 147.73122704 240.5305371 147.2890625 250.875 C147.17764246 253.01565418 147.0656457 255.1562784 146.953125 257.296875 C146.78595591 260.65402369 146.62449601 264.01121792 146.47363281 267.36914062 C146.32403738 270.62212662 146.15177879 273.87330731 145.9765625 277.125 C145.93786041 278.12515137 145.89915833 279.12530273 145.85928345 280.15576172 C145.46533272 287.11156361 144.24988351 290.95978639 139.0625 295.8125 C133.11095307 299.23914823 125.32097858 298.25948872 118.6875 298.3125 C117.48931641 298.34150391 116.29113281 298.37050781 115.05664062 298.40039062 C102.18846405 298.49255938 102.18846405 298.49255938 97 294 C94.1614124 290.05354397 93.5618822 287.09289252 93.34155273 282.27050781 C93.2926837 281.29285902 93.2926837 281.29285902 93.24282742 280.29545975 C93.14434783 278.1972695 93.06890994 276.09935782 93 274 C92.97617878 273.31751694 92.95235756 272.63503387 92.92781448 271.93186951 C92.78293078 267.61729998 92.6767538 263.30243827 92.58500862 258.98644257 C92.53375373 256.60675797 92.47724469 254.22724786 92.41929626 251.84771729 C92.25524271 245.09574915 92.09626178 238.34369695 91.95043945 231.59130859 C91.86021764 227.43059539 91.76071901 223.270192 91.65517998 219.10984039 C91.61698702 217.53264703 91.58232652 215.95536397 91.5512867 214.37801361 C91.50787747 212.18626806 91.45269321 209.99511416 91.39477539 207.80371094 C91.36670303 206.55877869 91.33863068 205.31384644 91.30970764 204.03118896 C91.22061174 200.8247258 91.22061174 200.8247258 89 198 C84.10242868 198.22261688 80.77299504 199.50836141 76.4375 201.8125 C61.95255961 209.3825191 47.32526775 210.2166472 31.31445312 210.34179688 C21.42263492 210.41226468 21.42263492 210.41226468 13 215 C8.27807151 221.2180426 8.45573848 226.81657086 8.53125 234.43359375 C8.52420044 235.6254982 8.51715088 236.81740265 8.5098877 238.04542542 C8.48046599 243.1245552 8.49702205 248.20329842 8.50927734 253.2824707 C8.5116622 256.99974339 8.49071785 260.71639791 8.46875 264.43359375 C8.48572937 266.14330605 8.48572937 266.14330605 8.50305176 267.88755798 C8.45439813 275.59127674 7.30126977 280.95978177 2.38793945 286.97290039 C-2.04059622 290.63439543 -6.39386859 292.61023366 -11.8125 294.4375 C-19.02888925 297.05377125 -25.04466981 300.06620455 -31 305 C-31.95132812 305.73089844 -32.90265625 306.46179688 -33.8828125 307.21484375 C-37.58676528 310.31550119 -40.30010907 314.04695328 -43.125 317.9375 C-43.63675781 318.62779297 -44.14851563 319.31808594 -44.67578125 320.02929688 C-46.96144426 323.12874993 -49.15469483 326.22795657 -51.1796875 329.50390625 C-51.78039063 330.32761719 -52.38109375 331.15132813 -53 332 C-53.99 332 -54.98 332 -56 332 C-56.75296717 328.64214819 -57.12571986 325.54103358 -57.12863445 322.10229969 C-57.1318589 321.13709426 -57.13508335 320.17188882 -57.1384055 319.17743474 C-57.1368569 318.12491842 -57.1353083 317.07240209 -57.13371277 315.98799133 C-57.13597833 314.86371442 -57.13824388 313.7394375 -57.14057809 312.58109158 C-57.14691897 308.80575966 -57.14608866 305.03046362 -57.14526367 301.25512695 C-57.14771136 298.55143599 -57.15162928 295.84774756 -57.15544128 293.14405823 C-57.16374569 286.55668584 -57.16649605 279.96932241 -57.16705366 273.38194523 C-57.16752902 268.02555057 -57.16958477 262.66915885 -57.17275429 257.31276512 C-57.1815611 242.11980316 -57.18617374 226.92684825 -57.18542381 211.73388372 C-57.18538386 210.91492719 -57.1853439 210.09597066 -57.18530273 209.25219727 C-57.18524141 208.02225867 -57.18524141 208.02225867 -57.18517885 206.76747283 C-57.18477261 193.48582229 -57.19433668 180.20420014 -57.2084411 166.92255781 C-57.2228157 153.27857948 -57.22971066 139.63461499 -57.22884732 125.9906289 C-57.22851568 118.33325673 -57.23124841 110.6759143 -57.24202538 103.01854897 C-57.25114474 96.49721459 -57.25329393 89.97592342 -57.24651595 83.45458541 C-57.24325767 80.12980026 -57.24426222 76.80516536 -57.2518692 73.4803772 C-57.25959534 69.86915342 -57.25493992 66.25814605 -57.24723816 62.64692688 C-57.25238172 61.60556416 -57.25752529 60.56420145 -57.26282471 59.49128228 C-57.18666048 43.28981923 -57.18666048 43.28981923 -52.625 37.5 C-48.89775151 33.95023953 -46.22390244 32.79778375 -41.11328125 32.5078125 C-39.7046582 32.40919922 -39.7046582 32.40919922 -38.26757812 32.30859375 C-36.31745462 32.18743604 -34.36691914 32.07271569 -32.41601562 31.96484375 C-24.99225498 31.42843023 -18.8280328 29.86932477 -12.80078125 25.3515625 C-7.57178503 19.2853779 -4.85441047 12.3967231 -2 5 C-1.33448477 3.33287322 -0.6682892 1.66601674 0 0 Z " fill="#FFFFFF" transform="translate(57,81)"/>
<path d="M0 0 C0.33 0.33 0.66 0.66 1 1 C0.99576322 2.95951172 0.98427033 4.91931293 0.93359375 6.87817383 C0.51000897 24.47635644 5.27145103 36.87524406 17.33984375 49.98828125 C28.23313202 63.1883835 32.16873765 81.30374789 31 98 C29.32538734 109.31418974 25.10260159 120.50920765 15.87109375 127.6640625 C15.25363281 128.10492188 14.63617188 128.54578125 14 129 C13.175 129.639375 12.35 130.27875 11.5 130.9375 C7.88528717 132.47375295 4.90856855 132.19874077 1 132 C1.0721875 131.17757812 1.144375 130.35515625 1.21875 129.5078125 C3.05862882 107.37815893 -1.33407469 93.7817298 -14.48266602 75.99829102 C-22.33348179 65.22887667 -26.59280444 52.9417397 -26.4375 39.625 C-26.42992676 38.7081543 -26.42235352 37.79130859 -26.41455078 36.84667969 C-26.15064164 25.95513033 -23.25073222 16.34081952 -16 8 C-13.46799104 5.76587444 -10.82825483 3.8392702 -8 2 C-4.77786243 -0.14809171 -3.72224599 -0.29386153 0 0 Z " fill="#FEFDFE" transform="translate(189,33)"/>
<path d="M0 0 C2.125 0.40625 2.125 0.40625 4 1 C4.14695313 2.19496094 4.14695313 2.19496094 4.296875 3.4140625 C5.17796646 9.65765887 6.04450569 13.94575727 10 19 C11.0620388 20.6747535 12.10213125 22.36353996 13.125 24.0625 C13.62257812 24.87847656 14.12015625 25.69445312 14.6328125 26.53515625 C18.54638265 33.59076415 18.86687786 40.01605488 18 48 C16.30374706 53.12137906 14.53592189 56.97605207 10 60 C7.3125 60.125 7.3125 60.125 5 60 C4.98582031 59.24976563 4.97164062 58.49953125 4.95703125 57.7265625 C4.59620523 49.98343123 2.96446872 44.61445842 -1 38 C-1.53753906 37.09636719 -2.07507813 36.19273437 -2.62890625 35.26171875 C-3.66126657 33.54277663 -4.70561304 31.83093577 -5.765625 30.12890625 C-9.14545218 24.29977393 -8.53755866 17.5243421 -8 11 C-6.57870444 6.59619303 -3.69760055 2.77320041 0 0 Z " fill="#FCFCFD" transform="translate(158,105)"/>
</svg>
