<?xml version="1.0" encoding="UTF-8"?>
<svg version="1.1" xmlns="http://www.w3.org/2000/svg" width="317" height="337">
<path d="M0 0 C1.52462302 -0.00135918 3.04924571 -0.003142 4.5738678 -0.00531006 C8.67349992 -0.00982565 12.77310657 -0.00811854 16.87273908 -0.00493097 C21.19770701 -0.0023735 25.52267296 -0.00475454 29.84764099 -0.00631714 C37.11425156 -0.0081304 44.38085192 -0.00575616 51.64746094 -0.00097656 C59.99294659 0.00445004 68.33840774 0.00271165 76.68389279 -0.00280297 C83.89803383 -0.00737549 91.11216759 -0.00796417 98.32630962 -0.0053643 C102.61308278 -0.00382225 106.89984452 -0.00354948 111.1866169 -0.00690079 C128.56129265 -0.01868885 145.89226595 0.01207727 163.23999023 1.12939453 C165.09908389 6.65310204 165.51734298 11.46047787 165.46704102 17.26507568 C165.46733873 18.16323793 165.46763645 19.06140017 165.46794319 19.98677945 C165.46655854 22.98460995 165.45089426 25.98219278 165.43530273 28.97998047 C165.43146301 31.13375206 165.42853606 33.28752544 165.42645264 35.44129944 C165.42013743 40.07280547 165.40761085 44.70423832 165.39031982 49.33571625 C165.36327128 56.65457106 165.35148657 63.97340158 165.34204102 71.29229736 C165.31984836 86.82136225 165.2807544 102.35036897 165.23999023 117.87939453 C165.19597577 134.65745691 165.15482954 151.43549576 165.13315392 168.21360421 C165.12316897 175.49439353 165.10342086 182.77507238 165.07629395 190.05581713 C165.06141595 194.57594583 165.05475186 199.09605914 165.05036163 203.61620903 C165.04660559 205.71773885 165.03938 207.81926565 165.02849579 209.92077065 C165.01414311 212.78113512 165.01198467 215.64125379 165.01293945 218.50164795 C165.00215457 219.75955442 165.00215457 219.75955442 164.99115181 221.04287314 C165.00513421 224.93192114 165.03185729 226.81719511 167.23999023 230.12939453 C169.84490615 231.31357938 169.84490615 231.31357938 172.94702148 232.25048828 C174.09106445 232.62882813 175.23510742 233.00716797 176.41381836 233.39697266 C178.82784054 234.17313974 181.24190265 234.94918264 183.65600586 235.72509766 C184.80391602 236.10472656 185.95182617 236.48435547 187.13452148 236.87548828 C188.71003784 237.3810022 188.71003784 237.3810022 190.31738281 237.89672852 C194.70101977 239.7456119 197.53576274 241.83277716 199.81420898 246.02783203 C201.17595824 252.02848973 198.04599464 258.19278463 196.05249023 263.75439453 C195.6393457 264.96869141 195.22620117 266.18298828 194.80053711 267.43408203 C190.15211546 280.85464438 190.15211546 280.85464438 185.23999023 284.12939453 C178.41160637 284.77286751 173.01595791 283.07394516 166.61499023 280.81689453 C165.58736572 280.4644165 164.55974121 280.11193848 163.50097656 279.7487793 C151.16145012 275.47948865 138.91613429 270.94189777 126.67553711 266.3984375 C123.55074883 265.24418441 120.42089464 264.10592345 117.28686523 262.97705078 C115.97262573 262.50150757 115.97262573 262.50150757 114.63183594 262.01635742 C113.05883744 261.44789989 111.48456117 260.88295844 109.90869141 260.32250977 C106.09288399 258.93555451 102.49173486 257.58935747 99.23999023 255.12939453 C98.29858398 253.00830078 98.29858398 253.00830078 97.67749023 250.69189453 C96.3691461 247.33070918 95.64989123 246.34193579 92.39233398 244.65283203 C86.92951301 242.78459928 86.92951301 242.78459928 81.23999023 242.12939453 C80.99635742 242.84353516 80.75272461 243.55767578 80.50170898 244.29345703 C72.88443582 261.41463448 53.95172716 273.32377996 37.23999023 280.12939453 C16.31579108 287.49455382 -6.5756762 286.27582553 -26.76000977 277.12939453 C-48.97035258 265.78861128 -63.73149457 247.43717772 -71.76000977 224.12939453 C-78.60255614 202.50587885 -75.48393757 180.8144248 -65.82250977 160.62939453 C-63.22044338 155.72905632 -60.33229459 151.3678397 -56.76000977 147.12939453 C-56.11418945 146.33919922 -55.46836914 145.54900391 -54.80297852 144.73486328 C-49.9010129 138.9849901 -44.62027676 134.50228958 -38.45922852 130.13720703 C-37.56848633 129.47462891 -36.67774414 128.81205078 -35.76000977 128.12939453 C-35.05337692 127.65056824 -34.34674408 127.17174194 -33.61869812 126.67840576 C-30.61684353 122.56165265 -31.24560079 118.29912207 -31.32177734 113.33740234 C-31.32279953 112.23776154 -31.32382172 111.13812073 -31.32487488 110.00515747 C-31.3327694 106.36394424 -31.36878515 102.72355681 -31.40454102 99.08251953 C-31.41454344 96.55150009 -31.42262968 94.02047241 -31.42887878 91.48944092 C-31.44769614 85.49947012 -31.48359769 79.50984969 -31.52847546 73.52003741 C-31.61260955 62.17396994 -31.65432824 50.82768551 -31.69913292 39.48140717 C-31.71679691 35.75896112 -31.74294673 32.03665298 -31.77070618 28.31427002 C-31.78393215 26.02250225 -31.79705507 23.73073389 -31.81005859 21.43896484 C-31.82487778 19.89255814 -31.82487778 19.89255814 -31.83999634 18.31491089 C-31.86509364 12.82132742 -31.6643168 7.55429933 -30.76000977 2.12939453 C-25.99796122 -2.63265402 -6.41485353 -0.00976122 0 0 Z M-18.76000977 12.12939453 C-19.9143216 14.4380182 -19.88572567 15.74318768 -19.88699341 18.31141663 C-19.88981323 19.18779282 -19.89263306 20.06416901 -19.89553833 20.96710205 C-19.8935141 21.93081726 -19.89148987 22.89453247 -19.8894043 23.88745117 C-19.89115662 24.90050827 -19.89290894 25.91356537 -19.89471436 26.95732117 C-19.89912876 30.31808161 -19.89619653 33.67878977 -19.89282227 37.03955078 C-19.89349537 39.3660025 -19.89446545 41.69245416 -19.89572144 44.01890564 C-19.89719781 48.89892241 -19.89504559 53.7789209 -19.89038086 58.65893555 C-19.88468046 64.92968479 -19.88796494 71.20039127 -19.89395332 77.47113895 C-19.89755787 82.27591782 -19.8964209 87.08068646 -19.89382553 91.88546562 C-19.89315613 94.19845014 -19.89398514 96.51143557 -19.89630508 98.82441902 C-19.8988302 102.04988204 -19.89499315 105.27527468 -19.8894043 108.50073242 C-19.89142853 109.46647186 -19.89345276 110.4322113 -19.89553833 111.42721558 C-19.89271851 112.30077194 -19.88989868 113.17432831 -19.88699341 114.07435608 C-19.88661638 114.83776841 -19.88623936 115.60118074 -19.88585091 116.38772678 C-19.94881639 118.15869135 -19.94881639 118.15869135 -18.76000977 119.12939453 C-13.97181152 118.74324951 -9.39287545 118.0613744 -4.69750977 117.06689453 C16.27353402 113.25132962 37.92851982 118.45040269 55.57983398 130.18408203 C60.12461344 133.50757714 64.22838881 137.18476475 68.23999023 141.12939453 C68.93995117 141.81646484 69.63991211 142.50353516 70.36108398 143.21142578 C85.92661805 159.56585631 92.69978959 181.84224817 92.25512695 203.98828125 C92.12219201 209.14817707 92.12219201 209.14817707 93.23999023 214.12939453 C95.63324643 215.53486235 95.63324643 215.53486235 98.55249023 216.44189453 C99.51799805 216.78865234 100.48350586 217.13541016 101.47827148 217.49267578 C104.31424747 218.14651466 105.57654655 218.19136461 108.23999023 217.12939453 C109.22999023 216.46939453 110.21999023 215.80939453 111.23999023 215.12939453 C119.87848976 213.4967288 127.72518644 217.10266186 135.61499023 220.19189453 C138.09736751 221.15444251 140.58448343 222.10026296 143.07592773 223.03955078 C144.16437988 223.46373291 145.25283203 223.88791504 146.37426758 224.32495117 C149.42033149 225.43543438 149.42033149 225.43543438 153.23999023 224.12939453 C153.23999023 154.49939453 153.23999023 84.86939453 153.23999023 13.12939453 C150.33038916 11.674594 147.79677286 12.00674594 144.54562378 12.00914001 C143.84971103 12.00828559 143.15379828 12.00743116 142.43679726 12.00655085 C140.09366262 12.0048974 137.7505988 12.01041521 135.4074707 12.01586914 C133.73232017 12.01615107 132.05716951 12.01599317 130.38201904 12.01542664 C125.82442083 12.01513888 121.26684876 12.02103215 116.70925665 12.02800059 C111.94998144 12.03423769 107.19070567 12.03483821 102.431427 12.036026 C93.41458253 12.03913826 84.39775014 12.04735024 75.38091099 12.05737549 C65.11745814 12.06853988 54.85400473 12.0740479 44.59054732 12.07907093 C23.47368821 12.08953294 2.35683998 12.10713036 -18.76000977 12.12939453 Z M-15.76000977 131.12939453 C-16.58500977 131.44134766 -17.41000977 131.75330078 -18.26000977 132.07470703 C-20.49157722 132.99677831 -22.61747556 134.01684925 -24.76000977 135.12939453 C-25.53473633 135.52513672 -26.30946289 135.92087891 -27.10766602 136.32861328 C-39.7110941 143.29944751 -47.99014621 152.59200159 -54.76000977 165.12939453 C-55.16735352 165.81388672 -55.57469727 166.49837891 -55.99438477 167.20361328 C-64.83296434 182.87509475 -65.18838689 202.26160906 -60.97875977 219.28955078 C-55.00156638 238.84424811 -42.49902074 254.90211181 -24.63891602 264.87158203 C-6.60816096 273.74350802 12.05726323 276.20764168 31.22973633 269.86572266 C50.83770793 262.68359461 65.5539443 249.85899131 74.67822266 230.99829102 C78.5154276 222.67084626 80.70898224 214.28928238 81.23999023 205.12939453 C81.28124023 204.45908203 81.32249023 203.78876953 81.36499023 203.09814453 C81.95896596 183.19995771 75.70073685 165.27366755 62.73999023 150.22705078 C50.20574191 136.9458487 32.73817882 127.63518692 14.25952148 126.79345703 C12.52404978 126.76375135 10.78821319 126.7511838 9.05249023 126.75439453 C8.13628906 126.75600586 7.22008789 126.75761719 6.27612305 126.75927734 C-1.62891677 126.9007856 -8.34771001 128.27092787 -15.76000977 131.12939453 Z M89.23999023 226.12939453 C88.90999023 227.44939453 88.57999023 228.76939453 88.23999023 230.12939453 C92.57663942 233.24636114 96.04407411 233.68906266 101.23999023 234.12939453 C101.56999023 232.80939453 101.89999023 231.48939453 102.23999023 230.12939453 C100.82773097 229.45344138 99.40996119 228.78899394 97.98999023 228.12939453 C97.20108398 227.75814453 96.41217773 227.38689453 95.59936523 227.00439453 C93.03432453 225.89758201 93.03432453 225.89758201 89.23999023 226.12939453 Z M116.23999023 226.12939453 C111.43122705 236.18745375 111.43122705 236.18745375 110.23999023 247.12939453 C112.21999023 248.11939453 112.21999023 248.11939453 114.23999023 249.12939453 C114.67311523 248.32501953 115.10624023 247.52064453 115.55249023 246.69189453 C117.23999023 244.12939453 117.23999023 244.12939453 120.23999023 243.12939453 C122.92749023 244.06689453 122.92749023 244.06689453 125.23999023 245.12939453 C125.56999023 247.76939453 125.89999023 250.40939453 126.23999023 253.12939453 C133.9700524 256.52148932 141.83296148 259.55333453 149.73999023 262.50439453 C150.70759277 262.87435547 151.67519531 263.24431641 152.67211914 263.62548828 C153.5917041 263.96451172 154.51128906 264.30353516 155.45874023 264.65283203 C156.2830957 264.96140137 157.10745117 265.2699707 157.95678711 265.58789062 C160.51423157 266.19443594 161.82271391 266.13398537 164.23999023 265.12939453 C166.01147395 262.65006257 166.01147395 262.65006257 167.23999023 260.12939453 C169.54999023 260.78939453 171.85999023 261.44939453 174.23999023 262.12939453 C174.32249023 263.40814453 174.40499023 264.68689453 174.48999023 266.00439453 C174.69868955 268.18272872 174.69868955 268.18272872 175.23999023 270.12939453 C177.16063817 271.71933783 177.16063817 271.71933783 179.23999023 272.12939453 C182.44799133 268.51567565 183.61168521 264.59735867 184.98999023 260.06689453 C185.22331055 259.34695313 185.45663086 258.62701172 185.69702148 257.88525391 C187.08763294 253.53465409 187.08763294 253.53465409 186.23999023 249.12939453 C184.35965758 248.07698511 184.35965758 248.07698511 181.98999023 247.32348633 C181.08394043 247.00272629 180.17789063 246.68196625 179.24438477 246.35148621 C178.25293457 246.01393814 177.26148438 245.67639008 176.23999023 245.32861328 C175.21631348 244.9697554 174.19263672 244.61089752 173.13793945 244.24116516 C169.84235783 243.08868349 166.54139808 241.95256536 163.23999023 240.81689453 C161.07555063 240.06341963 158.91148338 239.30887421 156.74780273 238.55322266 C152.53710569 237.08375127 148.3232885 235.6237804 144.10717773 234.16992188 C140.41342125 232.89271813 136.73130794 231.59019425 133.06030273 230.24902344 C131.89023682 229.8242144 131.89023682 229.8242144 130.6965332 229.39082336 C129.27903475 228.8740728 127.86376725 228.35113749 126.45141602 227.82048035 C122.92542117 226.53985607 119.9965839 225.84756039 116.23999023 226.12939453 Z " fill="#FCFCFC" transform="translate(95.760009765625,27.87060546875)"/>
<path d="M0 0 C10.52800794 8.16576793 18.04085447 17.71703619 23.1953125 30 C23.60910156 30.94875 24.02289063 31.8975 24.44921875 32.875 C29.98858078 47.69810119 28.83668118 66.07190971 22.71875 80.4765625 C14.73051726 97.9638714 1.35010767 110.73718279 -16.40380859 118.12329102 C-32.27986425 123.92061823 -51.94191476 122.62259072 -67.10327148 115.69238281 C-84.07372754 107.51680152 -95.01305783 94.35943681 -101.8046875 77 C-107.9965145 58.59286443 -106.63735983 41.21480712 -98.2421875 23.75 C-89.73434922 7.02306939 -75.15149539 -3.44891902 -57.9375 -10.109375 C-38.19897098 -16.03652536 -16.55708844 -11.80672602 0 0 Z M-77.8046875 14 C-88.62896928 26.88419896 -96.0361806 41.70717874 -94.8046875 59 C-94.32550078 61.69308288 -93.8059923 64.24152453 -93.1171875 66.875 C-92.93567139 67.57262451 -92.75415527 68.27024902 -92.56713867 68.98901367 C-88.48208876 83.97099926 -79.47690497 95.67456892 -66.12890625 103.5859375 C-53.24281785 110.58368087 -39.96388947 112.67600146 -25.64453125 109.2421875 C-10.30423229 104.53123117 2.12606841 95.79112296 9.984375 81.55078125 C17.04027898 66.68786092 18.74831579 50.67379962 13.1953125 35 C7.59584254 20.83164419 -2.75723809 10.16880815 -16.4296875 3.625 C-18.54285959 2.72180914 -20.66677672 1.84296352 -22.8046875 1 C-23.47886719 0.731875 -24.15304688 0.46375 -24.84765625 0.1875 C-42.42011389 -5.3984468 -65.19019131 1.09881071 -77.8046875 14 Z " fill="#FDFDFD" transform="translate(143.8046875,173)"/>
<path d="M0 0 C0.78955078 -0.00773437 1.57910156 -0.01546875 2.39257812 -0.0234375 C7.88846906 -0.00501037 11.88467551 0.48229002 16.1875 4.1875 C18.76707066 8.70174865 18.70923258 13.14199777 18.9375 18.25 C19.58823486 18.24476318 20.23896973 18.23952637 20.90942383 18.23413086 C23.85627274 18.21335062 26.80310623 18.2003365 29.75 18.1875 C30.77416016 18.17912109 31.79832031 18.17074219 32.85351562 18.16210938 C34.32788086 18.15727539 34.32788086 18.15727539 35.83203125 18.15234375 C36.73800049 18.14710693 37.64396973 18.14187012 38.57739258 18.13647461 C40.9375 18.25 40.9375 18.25 43.9375 19.25 C45.2054188 21.78583759 45.0713601 23.563773 45.08276367 26.40234375 C45.08914352 27.47685791 45.09552338 28.55137207 45.10209656 29.65844727 C45.10320938 30.82303467 45.1043222 31.98762207 45.10546875 33.1875 C45.11046135 34.97401978 45.11046135 34.97401978 45.11555481 36.79663086 C45.1206246 39.3185182 45.12296312 41.84041226 45.12280273 44.36230469 C45.12499086 48.23383545 45.14315084 52.10508214 45.16210938 55.9765625 C45.16504287 58.42187402 45.16702796 60.8671869 45.16796875 63.3125 C45.17515427 64.4770874 45.18233978 65.6416748 45.18974304 66.84155273 C45.18666641 67.91606689 45.18358978 68.99058105 45.18041992 70.09765625 C45.18184494 71.04648682 45.18326996 71.99531738 45.18473816 72.97290039 C44.9375 75.25 44.9375 75.25 42.9375 77.25 C40.24288957 77.44851848 37.6510527 77.52272882 34.95532227 77.50878906 C34.13079559 77.5122937 33.30626892 77.51579834 32.45675659 77.51940918 C29.7223883 77.52823479 26.98827732 77.52237392 24.25390625 77.515625 C22.35823008 77.51697154 20.46255425 77.51891198 18.56687927 77.52142334 C14.58971882 77.52437583 10.61264809 77.52007342 6.63549805 77.51074219 C1.532973 77.49935535 -3.56934149 77.50590147 -8.67185879 77.51788712 C-12.58801362 77.52510896 -16.50411841 77.52281615 -20.42027473 77.51763153 C-22.30177905 77.51629553 -24.18328787 77.51794102 -26.06478691 77.52259064 C-28.69362314 77.52766031 -31.32211704 77.51993909 -33.95092773 77.50878906 C-34.73181259 77.51283752 -35.51269745 77.51688599 -36.31724548 77.52105713 C-40.10536156 77.49123783 -41.83130061 77.40413293 -45.0625 75.25 C-45.44345093 72.93493652 -45.44345093 72.93493652 -45.45068359 70.00585938 C-45.46014008 68.91132446 -45.46959656 67.81678955 -45.4793396 66.68908691 C-45.47326691 65.50262573 -45.46719421 64.31616455 -45.4609375 63.09375 C-45.46380768 61.88054077 -45.46667786 60.66733154 -45.46963501 59.4173584 C-45.47167952 56.84838393 -45.46612281 54.27939404 -45.45361328 51.71044922 C-45.43756611 47.76624925 -45.45345004 43.82307415 -45.47265625 39.87890625 C-45.47067389 37.38801856 -45.46683036 34.89713151 -45.4609375 32.40625 C-45.46701019 31.21978882 -45.47308289 30.03332764 -45.4793396 28.81091309 C-45.46988312 27.71637817 -45.46042664 26.62184326 -45.45068359 25.49414062 C-45.44829681 24.52754517 -45.44591003 23.56094971 -45.44345093 22.56506348 C-45.31773712 21.80109253 -45.19202332 21.03712158 -45.0625 20.25 C-41.75961664 18.04807776 -40.78787273 18.01040032 -36.95703125 18.0546875 C-35.97412109 18.06113281 -34.99121094 18.06757812 -33.97851562 18.07421875 C-32.95435547 18.09097656 -31.93019531 18.10773438 -30.875 18.125 C-29.83923828 18.13402344 -28.80347656 18.14304687 -27.73632812 18.15234375 C-25.17815315 18.1759214 -22.62044252 18.2088297 -20.0625 18.25 C-20.00989014 17.56873047 -19.95728027 16.88746094 -19.90307617 16.18554688 C-19.82549072 15.28900391 -19.74790527 14.39246094 -19.66796875 13.46875 C-19.59473389 12.58123047 -19.52149902 11.69371094 -19.44604492 10.77929688 C-18.88649307 7.08931779 -17.57941041 4.97098423 -15.0625 2.25 C-10.03176001 0.02427867 -5.3936294 -0.05309561 0 0 Z M-8.0625 12.25 C-8.22916667 15.25 -8.22916667 15.25 -8.0625 18.25 C-7.01475011 19.52005965 -7.01475011 19.52005965 -4.6640625 19.3828125 C-3.68179688 19.38023438 -2.69953125 19.37765625 -1.6875 19.375 C-0.71039063 19.37757812 0.26671875 19.38015625 1.2734375 19.3828125 C4.04214416 19.36434035 4.04214416 19.36434035 6.9375 18.25 C6.9375 16.27 6.9375 14.29 6.9375 12.25 C3.34393654 11.32262879 -5.14979909 9.33729909 -8.0625 12.25 Z M-34.0625 29.25 C-34.16345564 31.90456193 -34.20220998 34.53255176 -34.1953125 37.1875 C-34.19626923 37.982771 -34.19722595 38.77804199 -34.19821167 39.59741211 C-34.19889343 41.2820646 -34.19703943 42.96671971 -34.19287109 44.65136719 C-34.18752275 47.23899197 -34.19281619 49.82644316 -34.19921875 52.4140625 C-34.19855797 54.04687539 -34.1972768 55.67968816 -34.1953125 57.3125 C-34.19733673 58.09165771 -34.19936096 58.87081543 -34.20144653 59.67358398 C-34.5208958 63.257942 -34.5208958 63.257942 -33.0625 66.25 C-31.00693339 66.34413687 -28.94809819 66.36742998 -26.89038086 66.36352539 C-26.24649918 66.36367142 -25.60261749 66.36381744 -24.93922424 66.3639679 C-22.80189697 66.36326885 -20.66465587 66.35547691 -18.52734375 66.34765625 C-17.04903715 66.34579204 -15.57072993 66.34436815 -14.09242249 66.34336853 C-10.19451198 66.33954359 -6.29663851 66.32971352 -2.39874268 66.31866455 C1.57596333 66.30844992 5.55067529 66.3038708 9.52539062 66.29882812 C17.329444 66.28809122 25.13346682 66.27101509 32.9375 66.25 C34.46531574 63.19436853 34.07960254 60.00376118 34.0703125 56.65234375 C34.07174759 55.52814781 34.07174759 55.52814781 34.07321167 54.38124084 C34.07389241 52.79672156 34.07204551 51.21219948 34.06787109 49.62768555 C34.06251383 47.19378445 34.06782347 44.76006727 34.07421875 42.32617188 C34.0735581 40.78906209 34.0722772 39.25195242 34.0703125 37.71484375 C34.07334885 36.6164341 34.07334885 36.6164341 34.07644653 35.49583435 C34.36569426 32.08535757 34.36569426 32.08535757 32.9375 29.25 C30.88815257 29.12093677 28.83439791 29.06145588 26.78125 29.02880859 C24.80415039 28.99404922 24.80415039 28.99404922 22.78710938 28.95858765 C21.33724314 28.93828208 19.88737322 28.91823832 18.4375 28.8984375 C16.96158406 28.87533537 15.4856726 28.85194517 14.00976562 28.82827759 C10.91279886 28.77976246 7.81580559 28.73483835 4.71875 28.69238281 C0.74030975 28.63754496 -3.23792645 28.57372436 -7.21618652 28.50720787 C-10.26492321 28.45723675 -13.3137164 28.41206791 -16.36254883 28.36836624 C-17.82985727 28.34673714 -19.29714399 28.3235805 -20.7644043 28.2989006 C-22.81161144 28.26517489 -24.85893273 28.23860388 -26.90625 28.21240234 C-28.07349609 28.19543304 -29.24074219 28.17846375 -30.44335938 28.16098022 C-32.98921932 27.94915955 -32.98921932 27.94915955 -34.0625 29.25 Z " fill="#FDFDFD" transform="translate(189.0625,50.75)"/>
<path d="M0 0 C0.66 0.99 1.32 1.98 2 3 C4.56628124 4.20905821 4.56628124 4.20905821 7.5625 5.25 C21.68415615 10.95947342 27.51013537 20.77990539 34 34 C34.66 34.66 35.32 35.32 36 36 C36.5412844 41.68348624 36.5412844 41.68348624 36 44 C34.67775717 45.01461899 33.34352824 46.01373957 32 47 C30.95448763 49.14195108 30.95448763 49.14195108 30.25 51.5625 C26.27472506 62.15807717 18.68447365 69.43177372 8.53515625 74.14453125 C7.01567178 74.80207153 5.48651687 75.43808746 3.9453125 76.04296875 C1.91900097 76.90722706 1.91900097 76.90722706 0.4296875 78.59375 C-1 80 -1 80 -4 80.3125 C-7 80 -7 80 -10 78 C-10 77.34 -10 76.68 -10 76 C-10.54527344 75.85304688 -11.09054688 75.70609375 -11.65234375 75.5546875 C-22.40226101 72.35727621 -30.8832955 66.17757029 -36.5078125 56.37109375 C-38.245794 52.95968434 -39.78866556 49.63400333 -41 46 C-41.99 45.34 -42.98 44.68 -44 44 C-45.04232869 41.03337218 -45.11708337 39.40979179 -44.25 36.375 C-43 34 -43 34 -41.6015625 32.71484375 C-39.47829887 30.44139806 -38.43555724 28.00342703 -37.125 25.1875 C-31.62892218 14.06161984 -23.27279228 7.91378125 -12 3 C-11.34 3 -10.68 3 -10 3 C-9.67 2.01 -9.34 1.02 -9 0 C-5.46474216 -1.17841928 -3.5797952 -0.91399027 0 0 Z M2 15 C1.34 16.98 0.68 18.96 0 21 C-2.64 21 -5.28 21 -8 21 C-8.66 19.35 -9.32 17.7 -10 16 C-15.86837913 16 -18.94784056 19.04481482 -23 22.87109375 C-25.40706726 25.43330402 -26.99834817 27.60979382 -28 31 C-27.32575833 33.35460678 -27.32575833 33.35460678 -26 35 C-24.68 35 -23.36 35 -22 35 C-22 37.64 -22 40.28 -22 43 C-23.98 43.66 -25.96 44.32 -28 45 C-27.70085178 50.98296435 -25.01904033 54.78359609 -21 59 C-17.38879711 61.78622982 -14.66601728 63 -10 63 C-9.34 61.35 -8.68 59.7 -8 58 C-5.36 57.67 -2.72 57.34 0 57 C0.66 59.31 1.32 61.62 2 64 C9.51428215 61.85306224 14.16701214 58.69116935 18.09765625 51.97265625 C19.21031695 49.5402162 19.41249729 47.63998267 19 45 C17.02 44.67 15.04 44.34 13 44 C12.875 38.25 12.875 38.25 14 36 C15.64363134 35.27840576 17.31050386 34.60648579 19 34 C18.73858683 27.59537731 16.64983688 24.34775931 12 20 C8.77142033 17.54627945 6.04915168 15.62294641 2 15 Z " fill="#FEFEFE" transform="translate(107,188)"/>
<path d="M0 0 C5.94481181 -0.04934399 11.88950509 -0.08569282 17.83447266 -0.10986328 C19.85793127 -0.11993671 21.88137528 -0.13359595 23.90478516 -0.15087891 C26.80895589 -0.17506847 29.71293461 -0.18646949 32.6171875 -0.1953125 C33.52556366 -0.20563507 34.43393982 -0.21595764 35.36984253 -0.22659302 C36.21056305 -0.22674408 37.05128357 -0.22689514 37.91748047 -0.22705078 C39.03000687 -0.23371262 39.03000687 -0.23371262 40.16500854 -0.24050903 C42 0 42 0 44 2 C44.24723816 4.35975647 44.24723816 4.35975647 44.24291992 7.35180664 C44.24753487 9.02848167 44.24753487 9.02848167 44.25224304 10.73902893 C44.24505753 11.95050095 44.23787201 13.16197296 44.23046875 14.41015625 C44.23001053 15.6479332 44.22955231 16.88571014 44.2290802 18.16099548 C44.2252786 21.45358047 44.21225824 24.74597359 44.19561768 28.03851318 C44.18216164 31.39351647 44.18534184 34.7484863 44.18554688 38.10351562 C44.18063168 40.64323117 44.17480335 43.18294515 44.16796875 45.72265625 C44.16685593 46.9361525 44.1657431 48.14964874 44.16459656 49.3999176 C44.15821671 50.5145488 44.15183685 51.62917999 44.14526367 52.77758789 C44.13954597 54.25745934 44.13954597 54.25745934 44.13371277 55.76722717 C44 58 44 58 43 59 C41.64905018 59.09268999 40.29332909 59.11747326 38.93920898 59.11352539 C38.07839218 59.11344986 37.21757538 59.11337433 36.33067322 59.11329651 C35.39526199 59.10813522 34.45985077 59.10297394 33.49609375 59.09765625 C32.54307877 59.0962413 31.59006378 59.09482635 30.60816956 59.09336853 C27.55124835 59.08775152 24.49439923 59.07519616 21.4375 59.0625 C19.37044376 59.05748719 17.30338638 59.05292391 15.23632812 59.04882812 C10.15752412 59.03777656 5.0787743 59.02050055 0 59 C-1.83927162 55.85364627 -2.25226826 53.5547865 -2.25878906 49.92773438 C-2.26509338 48.91988892 -2.27139771 47.91204346 -2.27789307 46.87365723 C-2.2738446 45.79128784 -2.26979614 44.70891846 -2.265625 43.59375 C-2.26753845 42.47689819 -2.2694519 41.36004639 -2.27142334 40.20935059 C-2.27278377 37.84903742 -2.26909723 35.48871674 -2.26074219 33.12841797 C-2.25004093 29.51382656 -2.26064254 25.89973218 -2.2734375 22.28515625 C-2.27211588 19.9921864 -2.26955344 17.69921686 -2.265625 15.40625 C-2.26967346 14.32388062 -2.27372192 13.24151123 -2.27789307 12.12634277 C-2.27158875 11.11849731 -2.26528442 10.11065186 -2.25878906 9.07226562 C-2.25719788 8.18720337 -2.25560669 7.30214111 -2.25396729 6.39025879 C-1.98298729 3.83988185 -1.28582957 2.19960696 0 0 Z M10 11 C9.89904436 13.65456193 9.86029002 16.28255176 9.8671875 18.9375 C9.86623077 19.732771 9.86527405 20.52804199 9.86428833 21.34741211 C9.86360657 23.0320646 9.86546057 24.71671971 9.86962891 26.40136719 C9.87497725 28.98899197 9.86968381 31.57644316 9.86328125 34.1640625 C9.86394203 35.79687539 9.8652232 37.42968816 9.8671875 39.0625 C9.86516327 39.84165771 9.86313904 40.62081543 9.86105347 41.42358398 C9.5416042 45.007942 9.5416042 45.007942 11 48 C14.30516934 48.25035974 17.62396041 48.18521952 20.9375 48.1875 C21.87013672 48.19974609 22.80277344 48.21199219 23.76367188 48.22460938 C24.65505859 48.22654297 25.54644531 48.22847656 26.46484375 48.23046875 C27.69642212 48.23663208 27.69642212 48.23663208 28.95288086 48.24291992 C31.22517224 48.1873988 31.22517224 48.1873988 33 46 C33.18729753 43.43072969 33.25574642 40.97126023 33.23046875 38.40234375 C33.23001053 37.65287979 33.22955231 36.90341583 33.2290802 36.13124084 C33.22605811 34.54670631 33.21817306 32.96217474 33.20581055 31.37768555 C33.18754683 28.94374142 33.18530089 26.51017738 33.18554688 24.07617188 C33.18063201 22.53905919 33.17480382 21.0019491 33.16796875 19.46484375 C33.16685593 18.73257065 33.1657431 18.00029755 33.16459656 17.24583435 C33.43484308 13.83476998 33.43484308 13.83476998 32 11 C28.51385093 10.61928025 25.00266247 10.53026796 21.5 10.375 C20.01693359 10.29765625 20.01693359 10.29765625 18.50390625 10.21875 C17.56417969 10.17492187 16.62445313 10.13109375 15.65625 10.0859375 C14.78806641 10.0451709 13.91988281 10.0044043 13.02539062 9.96240234 C11.00307404 9.76563893 11.00307404 9.76563893 10 11 Z " fill="#FCFCFC" transform="translate(93,69)"/>
<path d="M0 0 C1.29136368 -0.00630432 2.58272736 -0.01260864 3.91322327 -0.019104 C5.31902198 -0.01552449 6.72481945 -0.01142259 8.13061523 -0.00683594 C9.57502813 -0.00818358 11.01944058 -0.01012494 12.46385193 -0.01263428 C15.48750131 -0.01557995 18.51103236 -0.01130525 21.53466797 -0.00195312 C25.41078113 0.0094514 29.28661762 0.00287225 33.16272068 -0.00909805 C36.14383532 -0.01632302 39.12488429 -0.01402599 42.1060009 -0.00884247 C43.53534923 -0.00750826 44.96470351 -0.00914569 46.39404488 -0.01380157 C48.3902996 -0.01887808 50.38657523 -0.0097693 52.3828125 0 C53.51880386 0.00159119 54.65479523 0.00318237 55.82521057 0.00482178 C58.62670898 0.25878906 58.62670898 0.25878906 61.62670898 2.25878906 C62.06420898 8.38378906 62.06420898 8.38378906 60.62670898 11.25878906 C57.34879546 12.3514269 54.92542954 12.39228962 51.47460938 12.40405273 C50.20641861 12.41043259 48.93822784 12.41681244 47.63160706 12.42338562 C46.24586017 12.42491428 44.86011277 12.42602825 43.47436523 12.42675781 C42.0533393 12.42997132 40.63231369 12.43333547 39.21128845 12.43684387 C36.23297356 12.44283096 33.25468767 12.44468418 30.27636719 12.4440918 C26.46199788 12.44399015 22.64781462 12.45764637 18.83348942 12.47486401 C15.89866788 12.4859876 12.96389129 12.4880109 10.02905083 12.48748207 C8.62285152 12.48866149 7.21665103 12.49308115 5.81047249 12.50081444 C3.84307379 12.51062176 1.87562051 12.5064701 -0.09179688 12.50170898 C-1.77032997 12.50384651 -1.77032997 12.50384651 -3.48277283 12.50602722 C-6.31888751 12.26344242 -7.96994689 11.73125741 -10.37329102 10.25878906 C-10.37329102 7.61878906 -10.37329102 4.97878906 -10.37329102 2.25878906 C-6.87166264 0.10791316 -4.06859366 0.0056949 0 0 Z " fill="#FCFCFC" transform="translate(172.373291015625,142.7412109375)"/>
<path d="M0 0 C0.91885986 0.00338379 1.83771973 0.00676758 2.78442383 0.01025391 C20.64620516 0.14620516 20.64620516 0.14620516 23.625 3.125 C23.875 6.125 23.875 6.125 23.625 9.125 C20.96429795 11.78570205 18.97020322 11.37416545 15.35107422 11.40289307 C14.06354248 11.39682037 14.06354248 11.39682037 12.75 11.390625 C11.42959717 11.39349518 11.42959717 11.39349518 10.08251953 11.39642334 C8.21972366 11.39778552 6.35691831 11.39408682 4.49414062 11.38574219 C1.63650264 11.37504307 -1.22050666 11.38563632 -4.078125 11.3984375 C-5.88541806 11.39711591 -7.69271073 11.39455353 -9.5 11.390625 C-10.35835449 11.39467346 -11.21670898 11.39872192 -12.10107422 11.40289307 C-18.14508255 11.35491745 -18.14508255 11.35491745 -20.375 9.125 C-20.70833333 3.79166667 -20.70833333 3.79166667 -19.375 1.125 C-12.91435194 0.1062551 -6.5298227 -0.03459035 0 0 Z " fill="#FDFDFD" transform="translate(210.375,177.875)"/>
<path d="M0 0 C0.74472061 -0.0066568 1.48944122 -0.0133136 2.25672913 -0.02017212 C3.83283007 -0.03030291 5.40897395 -0.03498901 6.98510742 -0.03466797 C9.39769115 -0.03903991 11.80844349 -0.07534722 14.22070312 -0.11328125 C15.75129582 -0.11914962 17.28189721 -0.12311888 18.8125 -0.125 C19.53445053 -0.13937103 20.25640106 -0.15374207 21.00022888 -0.16854858 C24.27465941 -0.13865583 26.00798676 -0.10632363 28.43188477 2.20068359 C29.69948818 4.80130744 29.84885145 6.476854 29.47265625 9.3359375 C26.95156974 11.85702401 25.3999772 11.57293782 21.96105957 11.58818054 C20.83758118 11.57740227 20.83758118 11.57740227 19.69140625 11.56640625 C18.92211792 11.56594803 18.15282959 11.56548981 17.36022949 11.5650177 C15.7328131 11.56199503 14.10539961 11.55410824 12.47802734 11.54174805 C9.98264348 11.52351049 7.487631 11.52123823 4.9921875 11.52148438 C3.4127572 11.51656843 1.83332942 11.51073978 0.25390625 11.50390625 C-0.86957214 11.50223701 -0.86957214 11.50223701 -2.01574707 11.50053406 C-7.29520054 11.45200911 -7.29520054 11.45200911 -9.52734375 10.3359375 C-9.72265625 4.28125 -9.72265625 4.28125 -9.52734375 2.3359375 C-6.67142155 -0.5199847 -3.82598591 0.01176187 0 0 Z " fill="#FCFCFC" transform="translate(208.52734375,221.6640625)"/>
<path d="M0 0 C1.24007812 -0.00128906 2.48015625 -0.00257813 3.7578125 -0.00390625 C5.05460938 -0.00003906 6.35140625 0.00382813 7.6875 0.0078125 C9.63269531 0.00201172 9.63269531 0.00201172 11.6171875 -0.00390625 C12.85726562 -0.00261719 14.09734375 -0.00132812 15.375 0 C17.08236328 0.00169189 17.08236328 0.00169189 18.82421875 0.00341797 C21.6875 0.1328125 21.6875 0.1328125 24.6875 1.1328125 C26.02906965 7.59673898 26.02906965 7.59673898 24.59936523 9.84057617 C21.84186099 11.70438283 19.71779569 11.50480488 16.41015625 11.49609375 C15.17458984 11.49544922 13.93902344 11.49480469 12.66601562 11.49414062 C11.37373047 11.47802734 10.08144531 11.46191406 8.75 11.4453125 C6.81737305 11.45014648 6.81737305 11.45014648 4.84570312 11.45507812 C-5.62502241 11.39505833 -5.62502241 11.39505833 -9.3125 9.1328125 C-9.3125 6.4928125 -9.3125 3.8528125 -9.3125 1.1328125 C-5.99253736 0.02615829 -3.49561401 0.00346394 0 0 Z " fill="#FDFDFD" transform="translate(208.3125,195.8671875)"/>
<path d="M0 0 C4.31248609 -0.02886537 8.62494762 -0.04675255 12.9375 -0.0625 C14.16919922 -0.07087891 15.40089844 -0.07925781 16.66992188 -0.08789062 C17.83974609 -0.09111328 19.00957031 -0.09433594 20.21484375 -0.09765625 C21.84087524 -0.10551147 21.84087524 -0.10551147 23.49975586 -0.11352539 C26 0 26 0 27 1 C27.07179964 2.51928038 27.08392007 4.04167482 27.0625 5.5625 C27.05347656 6.38878906 27.04445312 7.21507812 27.03515625 8.06640625 C27.02355469 8.70449219 27.01195312 9.34257812 27 10 C23.0113168 11.9943416 17.94765918 11.18485036 13.5625 11.1875 C11.96825195 11.20586914 11.96825195 11.20586914 10.34179688 11.22460938 C9.32279297 11.22654297 8.30378906 11.22847656 7.25390625 11.23046875 C6.31877197 11.23457764 5.3836377 11.23868652 4.42016602 11.24291992 C2 11 2 11 -1 9 C-1.4375 2.875 -1.4375 2.875 0 0 Z " fill="#FDFDFD" transform="translate(180,161)"/>
<path d="M0 0 C0.73734375 0.00773438 1.4746875 0.01546875 2.234375 0.0234375 C3.34039062 0.01183594 3.34039062 0.01183594 4.46875 0 C9.9810554 0.0201179 9.9810554 0.0201179 12.234375 2.2734375 C12.546875 5.7734375 12.546875 5.7734375 12.234375 9.2734375 C8.79497573 11.56637034 7.40874819 11.54363388 3.359375 11.5234375 C1.81636719 11.53117188 1.81636719 11.53117188 0.2421875 11.5390625 C-2.801907 11.27023338 -5.0090785 10.55507904 -7.765625 9.2734375 C-7.890625 5.8984375 -7.890625 5.8984375 -7.765625 2.2734375 C-5.20613501 -0.28605249 -3.49355305 0.01275019 0 0 Z " fill="#FDFDFD" transform="translate(221.765625,160.7265625)"/>
<path d="M0 0 C1 1 1 1 1.1328125 2.8125 C1.13023437 3.534375 1.12765625 4.25625 1.125 5 C1.12757813 5.721875 1.13015625 6.44375 1.1328125 7.1875 C1 9 1 9 0 10 C-1.51928038 10.07179964 -3.04167482 10.08392007 -4.5625 10.0625 C-5.38878906 10.05347656 -6.21507812 10.04445313 -7.06640625 10.03515625 C-7.70449219 10.02355469 -8.34257813 10.01195312 -9 10 C-10.36952673 7.26094655 -10.12621361 5.02912668 -10 2 C-7.86862515 -2.2627497 -3.93649859 -0.85576056 0 0 Z " fill="#FCFCFC" transform="translate(136,52)"/>
<path d="M0 0 C0.94552734 0.16242187 0.94552734 0.16242187 1.91015625 0.328125 C4.47702992 4.1784355 3.74304349 5.91382263 2.91015625 10.328125 C1.43108733 10.35501716 -0.04811858 10.37447121 -1.52734375 10.390625 C-2.76291016 10.40802734 -2.76291016 10.40802734 -4.0234375 10.42578125 C-6.08984375 10.328125 -6.08984375 10.328125 -7.08984375 9.328125 C-7.22265625 7.515625 -7.22265625 7.515625 -7.21484375 5.328125 C-7.21742187 4.60625 -7.22 3.884375 -7.22265625 3.140625 C-6.91722558 -1.0276053 -3.44376136 0.12500041 0 0 Z " fill="#FDFDFD" transform="translate(116.08984375,51.671875)"/>
<path d="M0 0 C3.5625 0.1875 3.5625 0.1875 5.5625 2.1875 C5.75 5.75 5.75 5.75 5.5625 9.1875 C4.5625 10.1875 4.5625 10.1875 2.49609375 10.28515625 C1.67238281 10.27355469 0.84867187 10.26195312 0 10.25 C-0.82628906 10.24097656 -1.65257813 10.23195313 -2.50390625 10.22265625 C-3.14199219 10.21105469 -3.78007813 10.19945312 -4.4375 10.1875 C-4.46439216 8.70843108 -4.48384621 7.22922517 -4.5 5.75 C-4.51160156 4.92628906 -4.52320312 4.10257813 -4.53515625 3.25390625 C-4.36839634 -0.27473335 -3.65003385 0.19909276 0 0 Z " fill="#FDFDFD" transform="translate(96.4375,51.8125)"/>
</svg>
