<?xml version="1.0" encoding="UTF-8"?>
<svg version="1.1" xmlns="http://www.w3.org/2000/svg" width="342" height="242">
<path d="M0 0 C2.2349198 -0.00299542 4.46983908 -0.00639883 6.70475769 -0.01017761 C12.74990798 -0.01897904 18.7950441 -0.02135399 24.84020019 -0.0219934 C28.61951007 -0.02270565 32.39881639 -0.02484321 36.17812538 -0.02749062 C48.68956878 -0.03625268 61.20100416 -0.04091193 73.71244999 -0.04016014 C74.38516376 -0.04012019 75.05787753 -0.04008023 75.75097656 -0.04003906 C76.42451773 -0.03999818 77.0980589 -0.0399573 77.7920104 -0.03991518 C88.72081757 -0.03950825 99.64959036 -0.04909371 110.57838758 -0.06317743 C121.82013954 -0.0775495 133.06187525 -0.0842642 144.30363828 -0.08358365 C150.60717233 -0.08332879 156.91066737 -0.08617435 163.21419334 -0.0967617 C169.13792777 -0.10644095 175.06158584 -0.10652302 180.98532295 -0.09924507 C183.15731289 -0.09819929 185.32930759 -0.10056173 187.50128937 -0.10660553 C190.46918558 -0.11432867 193.43681828 -0.10967854 196.40470886 -0.10197449 C197.68920411 -0.10968983 197.68920411 -0.10968983 198.99964875 -0.11756104 C205.00756446 -0.08316897 211.41247844 0.05729835 216.22583008 4.02026367 C216.77368164 4.72151367 217.3215332 5.42276367 217.88598633 6.14526367 C218.45188477 6.84651367 219.0177832 7.54776367 219.60083008 8.27026367 C222.1132619 11.76582099 222.08464819 14.05104262 222.11343384 18.34077454 C222.11907738 18.98355746 222.12472092 19.62634038 222.13053548 20.28860158 C222.14830325 22.45346111 222.15897104 24.61829798 222.16967773 26.78320312 C222.18089234 28.33248693 222.19252454 29.88176776 222.20454407 31.43104553 C222.23596413 35.65585815 222.26105623 39.88068686 222.28474092 44.1055491 C222.30518964 47.64949355 222.32873092 51.19341467 222.35227811 54.73733968 C222.40800779 63.13053355 222.45867158 71.52374761 222.50610352 79.91699219 C222.55471178 88.50523088 222.61105208 97.0933924 222.67152464 105.68155509 C222.72345668 113.09257841 222.77064859 120.50362204 222.8142122 127.91469926 C222.84014922 132.32264898 222.86763545 136.73057244 222.89958572 141.13848305 C222.97261131 151.41540483 223.01027109 161.69124258 222.95919895 171.96836519 C222.95205921 173.4192235 222.94614764 174.87008838 222.94146633 176.32095671 C222.9244095 181.05959848 222.85820709 185.79492012 222.76635742 190.53271484 C222.76032816 191.70237195 222.7542989 192.87202906 222.74808693 194.07713032 C222.56061096 200.9567844 221.58963842 205.88977455 216.94848633 211.14526367 C210.91160773 215.95012623 206.24290598 216.29373623 198.73197937 216.2900238 C197.8963724 216.29355065 197.06076542 216.29707749 196.19983703 216.30071121 C193.39558889 216.31139867 190.59137471 216.31507928 187.78710938 216.31884766 C185.77819678 216.32515291 183.76928559 216.33191868 181.76037598 216.33911133 C177.43170653 216.35378336 173.10304248 216.36550727 168.77435875 216.37505913 C161.92928407 216.39050602 155.08425569 216.41445513 148.23921204 216.43995667 C128.77359949 216.51117404 109.30796048 216.57094383 89.84228516 216.62207031 C79.09355202 216.65037702 68.34486502 216.68575972 57.59618026 216.72872406 C50.79240183 216.75549176 43.98867559 216.77339991 37.18485487 216.78476131 C32.94965724 216.79389168 28.71452297 216.81125567 24.47936249 216.83094025 C22.51660216 216.83840921 20.55382559 216.84249641 18.5910511 216.84293556 C15.90922337 216.84402002 13.22771692 216.85728528 10.54594421 216.8735199 C9.38415517 216.86959462 9.38415517 216.86959462 8.19889563 216.86559004 C3.45517566 216.91036712 -0.48858937 217.71168258 -5.05151367 219.14526367 C-21.59808205 220.74437252 -35.89788269 217.2118792 -48.98901367 206.80932617 C-58.20058493 199.02577423 -65.03917719 188.14594504 -67.05151367 176.14526367 C-67.28979327 172.41835419 -67.28245142 168.69158281 -67.30151367 164.95776367 C-67.33245117 163.47179687 -67.33245117 163.47179687 -67.36401367 161.95581055 C-67.43082986 149.21897379 -63.23295706 138.13978056 -54.73510742 128.52416992 C-51.93706229 125.71690553 -49.16932274 122.94646753 -45.94384766 120.63456726 C-43.01208534 116.77792962 -43.55665458 113.09298455 -43.66088867 108.37890625 C-43.66672974 107.38816101 -43.6725708 106.39741577 -43.67858887 105.37664795 C-43.69380979 103.22510121 -43.71827337 101.07360463 -43.75085449 98.92225075 C-43.80192013 95.51265588 -43.8279741 92.1036838 -43.84741211 88.69377136 C-43.90090324 80.22118108 -43.9974865 71.7491794 -44.09301758 63.27697754 C-44.17208945 56.12406906 -44.23460377 48.97138453 -44.27526855 41.81815147 C-44.30111009 38.46713004 -44.35114984 35.11703145 -44.40209961 31.76631165 C-44.41664053 29.6970804 -44.4300461 27.62784076 -44.44213867 25.55859375 C-44.46280396 24.63410934 -44.48346924 23.70962494 -44.50476074 22.75712585 C-44.50677752 16.51151871 -43.3094675 11.52885344 -40.05151367 6.14526367 C-30.19641168 -3.24054775 -12.69801239 -0.00339915 0 0 Z M-33.05151367 12.14526367 C-35.79629793 16.5754163 -35.31935536 21.57376915 -35.27856445 26.6171875 C-35.27885651 27.56401398 -35.27914856 28.51084045 -35.27944946 29.48635864 C-35.27805881 32.6084314 -35.26250988 35.73026397 -35.24682617 38.85229492 C-35.24309511 41.01991139 -35.24024858 43.18752955 -35.23825073 45.35514832 C-35.23062166 51.05484693 -35.2109793 56.75444329 -35.18884277 62.45410156 C-35.16836878 68.27236549 -35.15924569 74.09064597 -35.14916992 79.90893555 C-35.12773281 91.32108979 -35.09360553 102.73316822 -35.05151367 114.14526367 C-34.37396027 114.00569244 -33.69640686 113.86612122 -32.99832153 113.72232056 C-31.65784256 113.44948746 -31.65784256 113.44948746 -30.2902832 113.17114258 C-28.96457809 112.89991074 -28.96457809 112.89991074 -27.61209106 112.62319946 C-24.3893905 112.02167734 -21.19670876 111.72899953 -17.92651367 111.52026367 C-16.25202148 111.40811523 -16.25202148 111.40811523 -14.54370117 111.29370117 C-13.7212793 111.2447168 -12.89885742 111.19573242 -12.05151367 111.14526367 C-9.95283151 114.29328692 -9.79189365 115.10548197 -9.73266602 118.70849609 C-9.71279633 119.62922409 -9.69292664 120.54995209 -9.67245483 121.49858093 C-9.66090363 122.48929092 -9.64935242 123.48000092 -9.63745117 124.50073242 C-9.61808502 125.51750565 -9.59871887 126.53427887 -9.57876587 127.5818634 C-9.51894626 130.83207794 -9.47257491 134.08232784 -9.42651367 137.33276367 C-9.38833611 139.53525315 -9.34928451 141.73772766 -9.30932617 143.94018555 C-9.21324284 149.3417455 -9.12820229 154.74339544 -9.05151367 160.14526367 C-8.4649147 160.15557114 -7.87831573 160.1658786 -7.27394104 160.17649841 C-1.19113497 160.28433561 4.89151607 160.39895123 10.97412109 160.51757812 C13.24687469 160.56100032 15.51966245 160.60266983 17.79248047 160.64257812 C21.05161865 160.70010486 24.31058364 160.76384919 27.56958008 160.82885742 C28.59248642 160.84556992 29.61539276 160.86228241 30.66929626 160.87950134 C31.61019608 160.89944656 32.55109589 160.91939178 33.52050781 160.93994141 C34.35323715 160.95548569 35.18596649 160.97102997 36.04393005 160.98704529 C37.94848633 161.14526367 37.94848633 161.14526367 38.94848633 162.14526367 C40.28573322 176.2850054 35.97438653 188.5926085 27.00708008 199.50854492 C25.77926047 200.9050347 24.53483037 202.2872269 23.26879883 203.64916992 C21.83820526 204.93766462 21.83820526 204.93766462 21.94848633 206.14526367 C46.11346029 206.2620113 70.27839204 206.35020992 94.44359112 206.40432453 C105.66366179 206.43011759 116.88355735 206.4652893 128.10351562 206.52246094 C137.88164965 206.57226201 147.65965687 206.60454667 157.43791419 206.61570615 C162.61656726 206.62223046 167.7948575 206.63758751 172.97339439 206.67391396 C177.84649139 206.70782124 182.71907568 206.71832725 187.59227943 206.71080208 C189.38175873 206.71217898 191.17125495 206.72214288 192.96063232 206.74129105 C195.40303121 206.7661478 197.84349128 206.76019722 200.28593445 206.74653625 C200.99508662 206.76110046 201.7042388 206.77566467 202.43488044 206.79067022 C206.06846553 206.73568459 207.89074074 206.1857449 210.888134 204.08449078 C213.41034035 200.48639876 213.64784045 197.75979097 213.57667542 193.51635742 C213.5837698 192.75607239 213.59086419 191.99578735 213.59817356 191.21246338 C213.61575468 188.66871354 213.59764946 186.12649153 213.57958984 183.58276367 C213.58472865 181.75764266 213.59200963 179.93252661 213.60127258 178.10742188 C213.6197998 173.15280816 213.60683964 168.19873202 213.58718228 163.24414062 C213.57080541 158.06013353 213.57960734 152.87616074 213.58470154 147.69213867 C213.58922357 138.98632208 213.57334584 130.28072027 213.54541016 121.57495117 C213.51335781 111.50863858 213.51337367 101.44271339 213.53062493 91.37637329 C213.54648646 81.69446961 213.53975884 72.01270801 213.52268791 62.33081055 C213.51581375 58.20967835 213.51685363 54.08865991 213.52423286 49.9675293 C213.5318917 45.11484865 213.51978263 40.26260908 213.49238396 35.41000366 C213.48549484 33.62862457 213.4854078 31.84720432 213.49259949 30.06582642 C213.50128335 27.63478134 213.48535762 25.20510085 213.46315002 22.77416992 C213.47551118 21.71555756 213.47551118 21.71555756 213.48812205 20.63555908 C213.40801815 15.88789662 212.29902686 13.4843731 208.94848633 10.14526367 C205.52281497 8.43242799 201.58989051 9.00121299 197.82011414 9.00482178 C196.86229831 9.00185066 195.90448249 8.99887953 194.91764194 8.99581838 C191.68792447 8.98710313 188.45824394 8.98562075 185.22851562 8.98413086 C182.9210909 8.97950469 180.61366695 8.9744803 178.3062439 8.96908569 C172.02316942 8.95594043 165.74010565 8.94951261 159.45701957 8.94507504 C155.53489585 8.94214777 151.61277508 8.93804363 147.69065285 8.93357086 C136.83466925 8.92145892 125.9786889 8.91107788 115.12269878 8.90769577 C114.42763819 8.9074762 113.7325776 8.90725664 113.01645457 8.90703042 C112.31971529 8.90681214 111.622976 8.90659386 110.90512341 8.90636897 C109.49322681 8.9059255 108.0813302 8.90547894 106.66943359 8.9050293 C105.96908168 8.90480787 105.26872976 8.90458644 104.54715506 8.9043583 C93.19864317 8.9004102 81.85019549 8.88295649 70.50170841 8.85966977 C58.85457946 8.8359629 47.20748592 8.82375227 35.5603326 8.82232785 C29.01920009 8.82127793 22.47815811 8.81533029 15.93704796 8.79750824 C9.78524273 8.78107356 3.6335965 8.77884967 -2.51822281 8.78764725 C-4.77854652 8.78842009 -7.03887862 8.78404255 -9.29918098 8.774189 C-12.38037547 8.76154264 -15.46100058 8.76730662 -18.54219055 8.777771 C-19.44063495 8.76971459 -20.33907936 8.76165819 -21.26474935 8.75335765 C-26.01171516 8.79116862 -29.20847103 9.03494594 -33.05151367 12.14526367 Z M-46.36401367 133.29370117 C-52.47983521 139.51011188 -55.53286452 145.84721424 -58.05151367 154.14526367 C-58.25260742 154.80526367 -58.45370117 155.46526367 -58.66088867 156.14526367 C-61.46971703 170.52646485 -56.26225125 182.20808355 -48.82104492 194.11401367 C-42.55628309 202.59553738 -30.84358846 207.68477416 -20.79370117 209.75073242 C-7.81848977 211.61753634 2.89085286 207.76417769 13.94848633 201.14526367 C22.37085378 194.69834849 27.92783141 185.21411341 30.94848633 175.14526367 C31.28538931 171.85149842 31.28538931 171.85149842 30.94848633 169.14526367 C29.36372581 167.56050315 27.71956631 167.9809905 25.52050781 167.93994141 C24.56640015 167.91975952 23.61229248 167.89957764 22.62927246 167.87878418 C21.61957397 167.86230835 20.60987549 167.84583252 19.56958008 167.82885742 C18.64665161 167.8102063 17.72372314 167.79155518 16.77282715 167.77233887 C13.31064834 167.70381318 9.84830509 167.64381039 6.38598633 167.58276367 C-1.34838867 167.43838867 -9.08276367 167.29401367 -17.05151367 167.14526367 C-17.38151367 151.63526367 -17.71151367 136.12526367 -18.05151367 120.14526367 C-29.46931715 120.14526367 -38.22043634 125.72787763 -46.36401367 133.29370117 Z " fill="#FBFAFD" transform="translate(92.051513671875,9.854736328125)"/>
<path d="M0 0 C0.69891357 -0.0004985 1.39782715 -0.00099701 2.11791992 -0.00151062 C3.59394172 0.00082733 5.06996769 0.0105396 6.54589844 0.02709961 C8.80439933 0.05069661 11.06171962 0.04765855 13.3203125 0.04101562 C24.39365848 0.08405357 24.39365848 0.08405357 27.8125 2.36328125 C28.18164349 4.18673134 28.18164349 4.18673134 28.17326355 6.43814087 C28.17738754 7.29071976 28.18151154 8.14329865 28.1857605 9.02171326 C28.17497467 9.9589473 28.16418884 10.89618134 28.15307617 11.86181641 C28.15373329 13.33992043 28.15373329 13.33992043 28.15440369 14.84788513 C28.15230789 18.11623717 28.12893935 21.38408095 28.10546875 24.65234375 C28.09987562 26.91392741 28.09560419 29.17551469 28.09260559 31.43710327 C28.08113461 37.39829491 28.05164796 43.35926831 28.01849365 49.32037354 C27.98784133 55.39975024 27.97411061 61.4791621 27.95898438 67.55859375 C27.92678049 79.49358563 27.87555691 91.42841531 27.8125 103.36328125 C23.95044244 104.7029191 20.79270957 105.61380829 16.6953125 105.59375 C15.75816406 105.59181641 14.82101563 105.58988281 13.85546875 105.58789062 C12.89253906 105.57564453 11.92960937 105.56339844 10.9375 105.55078125 C9.98230469 105.55013672 9.02710938 105.54949219 8.04296875 105.54882812 C-7.09539984 105.45538141 -7.09539984 105.45538141 -10.1875 102.36328125 C-10.39180403 99.24519633 -10.47061567 96.2155653 -10.4621582 93.09594727 C-10.46726913 92.13487061 -10.47238007 91.17379395 -10.47764587 90.18359375 C-10.49158873 86.99472898 -10.49058157 83.8060792 -10.48828125 80.6171875 C-10.49216562 78.40762755 -10.49649975 76.19806835 -10.50126648 73.98851013 C-10.50873881 69.35226015 -10.50843009 64.71608631 -10.50317383 60.07983398 C-10.49737813 54.12978259 -10.5143079 48.18004238 -10.5375185 42.23004246 C-10.5522292 37.66536121 -10.55313117 33.10075536 -10.55000877 28.53605461 C-10.55052334 26.34194256 -10.55578622 24.14782643 -10.56582069 21.95373726 C-10.57811602 18.88895401 -10.57143486 15.82478274 -10.55981445 12.76000977 C-10.56745819 11.84821457 -10.57510193 10.93641937 -10.58297729 9.99699402 C-10.57596298 9.16275909 -10.56894867 8.32852417 -10.5617218 7.4690094 C-10.56188954 6.74431237 -10.56205729 6.01961535 -10.56223011 5.2729578 C-9.44751617 -0.40777883 -4.89532681 -0.01117517 0 0 Z M-1.1875 10.36328125 C-1.1875 38.41328125 -1.1875 66.46328125 -1.1875 95.36328125 C1.109037 96.51154975 2.39563167 96.478893 4.9453125 96.4609375 C5.75097656 96.45771484 6.55664062 96.45449219 7.38671875 96.45117188 C8.22847656 96.44279297 9.07023437 96.43441406 9.9375 96.42578125 C11.21173828 96.41901367 11.21173828 96.41901367 12.51171875 96.41210938 C14.61200909 96.40030999 16.7122633 96.38237431 18.8125 96.36328125 C20.04925177 92.65302594 19.89950325 89.26239056 19.83422852 85.40356445 C19.82462097 84.59358002 19.81501343 83.78359558 19.80511475 82.94906616 C19.77212249 80.27064325 19.73179098 77.59238332 19.69140625 74.9140625 C19.66710536 73.05747554 19.64326178 71.20088254 19.61985779 69.34428406 C19.55701382 64.45666631 19.487948 59.5691554 19.41760254 54.68164062 C19.34692197 49.69471097 19.28210334 44.70770554 19.21679688 39.72070312 C19.08778045 29.93481031 18.95165189 20.1490352 18.8125 10.36328125 C12.2125 10.36328125 5.6125 10.36328125 -1.1875 10.36328125 Z " fill="#FDFCFE" transform="translate(216.1875,101.63671875)"/>
<path d="M0 0 C1.83691406 -0.00580078 1.83691406 -0.00580078 3.7109375 -0.01171875 C4.98195313 -0.00011719 6.25296875 0.01148437 7.5625 0.0234375 C8.83351563 0.01183594 10.10453125 0.00023438 11.4140625 -0.01171875 C12.63867188 -0.00785156 13.86328125 -0.00398438 15.125 0 C16.24003906 0.00338379 17.35507812 0.00676758 18.50390625 0.01025391 C21.91927619 0.443718 23.81215826 1.36117035 26.5625 3.3984375 C28.10351027 6.48045805 27.70979422 9.72300888 27.70776367 13.10522461 C27.71112228 13.90049057 27.7144809 14.69575653 27.71794128 15.51512146 C27.727464 18.15202381 27.72939503 20.78886276 27.73046875 23.42578125 C27.73368031 25.25419644 27.7370443 27.08261136 27.74055481 28.911026 C27.74654931 32.74692379 27.74839437 36.58279903 27.74780273 40.41870117 C27.74770107 45.33961042 27.76135636 50.26037551 27.77857494 55.18125057 C27.78968035 58.95842659 27.7917224 62.73556758 27.79119301 66.51275826 C27.79237521 68.32728129 27.79681039 70.14180516 27.80452538 71.95631218 C27.81429631 74.49173017 27.81145882 77.02683305 27.80541992 79.56225586 C27.81103943 80.3150885 27.81665894 81.06792114 27.82244873 81.84356689 C27.79976842 85.58097177 27.69112214 87.20550429 25.5625 90.3984375 C20.47563842 92.09405803 15.13745851 91.5830372 9.8125 91.5859375 C8.64460938 91.59818359 7.47671875 91.61042969 6.2734375 91.62304688 C0.33300727 91.63314965 -4.8620862 91.54098937 -10.4375 89.3984375 C-12.45030161 87.38563589 -11.61541614 83.29088275 -11.63037109 80.52978516 C-11.63854858 79.70540451 -11.64672607 78.88102386 -11.65515137 78.03166199 C-11.68005135 75.29194884 -11.69653201 72.55228761 -11.7109375 69.8125 C-11.71626118 68.87939373 -11.72158485 67.94628746 -11.72706985 66.98490524 C-11.75381997 62.04723684 -11.7731899 57.1095939 -11.78759766 52.171875 C-11.80426086 47.06125147 -11.8490471 41.95127093 -11.8999691 36.84089088 C-11.93355781 32.92045313 -11.94516582 29.00016961 -11.95082474 25.07960129 C-11.95755923 23.19525609 -11.97283796 21.3109218 -11.99671555 19.42671585 C-12.02819501 16.79256411 -12.02843048 14.16016789 -12.02099609 11.52587891 C-12.03740143 10.743423 -12.05380676 9.9609671 -12.07070923 9.15480042 C-12.04550171 6.97940063 -12.04550171 6.97940063 -11.4375 3.3984375 C-7.75508667 0.28378406 -4.74095835 0.0143873 0 0 Z M-2.4375 10.3984375 C-2.46005261 19.63841621 -2.47841601 28.87837678 -2.48931217 38.11837673 C-2.49454061 42.40843665 -2.50163753 46.69847683 -2.51293945 50.98852539 C-2.52376975 55.1252315 -2.52977714 59.26191858 -2.53237724 63.39863777 C-2.53423124 64.98036054 -2.53785136 66.56208221 -2.54323006 68.14379692 C-2.5504424 70.35166588 -2.55149086 72.55945523 -2.55102539 74.76733398 C-2.553246 76.02642075 -2.55546661 77.28550751 -2.55775452 78.58274841 C-2.75957726 81.30179045 -2.75957726 81.30179045 -1.4375 82.3984375 C-0.10706375 82.4968096 1.22843344 82.52922342 2.5625 82.53125 C3.366875 82.53253906 4.17125 82.53382813 5 82.53515625 C6.2684375 82.52935547 6.2684375 82.52935547 7.5625 82.5234375 C8.408125 82.52730469 9.25375 82.53117187 10.125 82.53515625 C10.929375 82.53386719 11.73375 82.53257812 12.5625 82.53125 C13.67625 82.52955811 13.67625 82.52955811 14.8125 82.52783203 C16.59075811 82.58785966 16.59075811 82.58785966 17.5625 81.3984375 C17.65682985 79.18975919 17.67992431 76.97802229 17.67602539 74.76733398 C17.67617142 74.07468445 17.67631744 73.38203491 17.6764679 72.668396 C17.67576874 70.36874304 17.66797628 68.06917013 17.66015625 65.76953125 C17.65829208 64.17912338 17.65686817 62.58871493 17.65586853 60.99830627 C17.65204329 56.8044782 17.64221295 52.61068455 17.63116455 48.41687012 C17.62095057 44.14054836 17.61637094 39.86422106 17.61132812 35.58789062 C17.60059068 27.19138866 17.58299384 18.79492132 17.5625 10.3984375 C10.9625 10.3984375 4.3625 10.3984375 -2.4375 10.3984375 Z " fill="#FDFDFE" transform="translate(266.4375,115.6015625)"/>
<path d="M0 0 C0.72711182 0.00404846 1.45422363 0.00809692 2.20336914 0.01226807 C2.95046143 0.01035461 3.69755371 0.00844116 4.46728516 0.00646973 C6.04761085 0.00510809 7.62794772 0.00880307 9.20825195 0.01715088 C11.63135836 0.02785107 14.05372337 0.01725527 16.47680664 0.00445557 C18.01066245 0.00577717 19.54451779 0.00833957 21.07836914 0.01226807 C21.80548096 0.0082196 22.53259277 0.00417114 23.28173828 0 C28.41094553 0.04796946 28.41094553 0.04796946 30.64086914 2.27789307 C30.8881073 5.05525208 30.8881073 5.05525208 30.88378906 8.63946533 C30.88568741 9.29164032 30.88758575 9.94381531 30.88954163 10.61575317 C30.89325193 12.77539012 30.88254286 14.93469217 30.87133789 17.09429932 C30.87014624 18.59120138 30.8696929 20.0881042 30.86994934 21.58500671 C30.8683841 24.72316158 30.86009065 27.86120243 30.84667969 30.99932861 C30.82967511 35.03033037 30.82586573 39.06120691 30.82662487 43.09224033 C30.82635352 46.18307195 30.82087829 49.27387595 30.81362343 52.36469841 C30.81043217 53.85151905 30.80846829 55.33834282 30.80772972 56.8251667 C30.80557179 58.89873764 30.79684004 60.97217326 30.78613281 63.04571533 C30.78041512 64.8187075 30.78041512 64.8187075 30.77458191 66.6275177 C30.64086914 69.27789307 30.64086914 69.27789307 29.64086914 70.27789307 C18.86121552 72.25782945 5.41949525 72.46665622 -5.35913086 70.27789307 C-8.12468016 67.51234376 -7.61261686 65.8966952 -7.61791992 62.02398682 C-7.62422424 60.70922363 -7.63052856 59.39446045 -7.63702393 58.03985596 C-7.63344426 56.59836697 -7.62934232 55.1568792 -7.62475586 53.71539307 C-7.62610254 52.24330583 -7.62804309 50.77121902 -7.6305542 49.2991333 C-7.63350535 46.21225759 -7.62920818 43.12549754 -7.61987305 40.03863525 C-7.60847842 36.07717178 -7.61503795 32.11597928 -7.62701797 28.15452576 C-7.63423686 25.1142573 -7.63194853 22.07405333 -7.62676239 19.03378296 C-7.62542597 17.57290617 -7.62707336 16.11202357 -7.6317215 14.65115356 C-7.63678692 12.61136992 -7.62770065 10.5715658 -7.61791992 8.53179932 C-7.61553314 6.7887854 -7.61553314 6.7887854 -7.61309814 5.01055908 C-7.13773072 -0.10435328 -4.53574878 0.04241931 0 0 Z M1.64086914 9.27789307 C1.64086914 26.43789307 1.64086914 43.59789307 1.64086914 61.27789307 C3.93740614 62.42616157 5.22400081 62.39350482 7.77368164 62.37554932 C8.5793457 62.37232666 9.38500977 62.369104 10.21508789 62.36578369 C11.0568457 62.35740479 11.89860352 62.34902588 12.76586914 62.34039307 C14.04010742 62.33362549 14.04010742 62.33362549 15.34008789 62.32672119 C17.44037823 62.31492181 19.54063244 62.29698613 21.64086914 62.27789307 C22.51554498 59.26004708 22.7672948 56.57103358 22.77026367 53.43341064 C22.77341583 52.47594437 22.77656799 51.51847809 22.77981567 50.53199768 C22.77779144 49.50583847 22.77576721 48.47967926 22.77368164 47.42242432 C22.77463837 46.36504562 22.77559509 45.30766693 22.77658081 44.21824646 C22.77726071 41.98658183 22.77541968 39.75491521 22.77124023 37.52325439 C22.7658734 34.09311533 22.77119984 30.66310627 22.77758789 27.23297119 C22.77692739 25.06695528 22.77564681 22.90093944 22.77368164 20.73492432 C22.77570587 19.70269241 22.7777301 18.67046051 22.77981567 17.60694885 C22.77666351 16.65893906 22.77351135 15.71092926 22.77026367 14.73419189 C22.76946808 13.89576248 22.76867249 13.05733307 22.76785278 12.1934967 C22.85153039 10.2689585 22.85153039 10.2689585 21.64086914 9.27789307 C15.04086914 9.27789307 8.44086914 9.27789307 1.64086914 9.27789307 Z " fill="#FEFDFE" transform="translate(164.359130859375,135.72210693359375)"/>
<path d="M0 0 C16.03251357 2.97291642 28.58897956 10.43475994 38.07421875 23.95703125 C43.96182851 33.57222623 47.36444158 43.5981847 47 55 C46.34 55.99 45.68 56.98 45 58 C42.6335144 58.36076355 42.6335144 58.36076355 39.63232422 58.34057617 C38.51131317 58.34034958 37.39030212 58.34012299 36.23532104 58.33988953 C35.02071198 58.32440567 33.80610291 58.30892181 32.5546875 58.29296875 C31.31453888 58.28872391 30.07439026 58.28447906 28.79666138 58.28010559 C25.49864537 58.26613216 22.2010665 58.23917361 18.90319824 58.20599365 C15.53838458 58.17531238 12.17350696 58.16160446 8.80859375 58.14648438 C2.20555729 58.1133473 -4.39718558 58.06309697 -11 58 C-12.25338367 55.49323265 -12.14049304 53.76064185 -12.16113281 50.95532227 C-12.17074036 49.90405655 -12.1803479 48.85279083 -12.19024658 47.76966858 C-12.19449646 46.63009201 -12.19874634 45.49051544 -12.203125 44.31640625 C-12.20882507 43.14996078 -12.21452515 41.98351532 -12.22039795 40.78172302 C-12.22985648 38.31111562 -12.2363853 35.84049556 -12.24023438 33.36987305 C-12.24995089 29.58164614 -12.2809715 25.7939591 -12.3125 22.00585938 C-12.31902869 19.60937823 -12.32427969 17.2128932 -12.328125 14.81640625 C-12.3404718 13.67885391 -12.3528186 12.54130157 -12.36553955 11.36927795 C-12.36253845 10.31486008 -12.35953735 9.2604422 -12.35644531 8.17407227 C-12.36009094 7.2452272 -12.36373657 6.31638214 -12.36749268 5.35939026 C-12 3 -12 3 -10.71209717 1.20396423 C-7.45834515 -1.08410745 -3.75596243 -0.45277355 0 0 Z M-2 9 C-3.86962718 10.86962718 -3.12886303 13.54663561 -3.13894653 16.03381348 C-3.1369223 16.87859253 -3.13489807 17.72337158 -3.1328125 18.59375 C-3.13376923 19.45560913 -3.13472595 20.31746826 -3.13571167 21.20544434 C-3.1363935 23.03133212 -3.13453904 24.85722231 -3.13037109 26.68310547 C-3.12502286 29.48801078 -3.13031599 32.29275595 -3.13671875 35.09765625 C-3.13605797 36.86718786 -3.13477681 38.63671936 -3.1328125 40.40625 C-3.13483673 41.25102905 -3.13686096 42.09580811 -3.13894653 42.96618652 C-3.49924511 46.7918686 -3.49924511 46.7918686 -2 50 C0.8843382 50.08865208 3.74462158 50.11521296 6.62890625 50.09765625 C7.49313705 50.0962413 8.35736786 50.09482635 9.24778748 50.09336853 C12.01939292 50.08775239 14.7909188 50.07519719 17.5625 50.0625 C19.4368478 50.05748708 21.31119685 50.05292381 23.18554688 50.04882812 C27.79039544 50.03777772 32.39518421 50.0205023 37 50 C38.34626298 47.30747403 37.52685412 45.76477258 36.66552734 42.99658203 C36.44590332 42.33770996 36.2262793 41.67883789 36 41 C35.77650879 40.32952637 35.55301758 39.65905273 35.32275391 38.96826172 C33.21373028 33.00673589 30.35981294 27.64908963 26 23 C25.01 22.67 24.02 22.34 23 22 C22.67 21.01 22.34 20.02 22 19 C15.29896464 14.14257733 6.55089113 9 -2 9 Z " fill="#FEFDFE" transform="translate(100,106)"/>
<path d="M0 0 C1.73056641 -0.04253906 1.73056641 -0.04253906 3.49609375 -0.0859375 C4.60082031 -0.08851562 5.70554687 -0.09109375 6.84375 -0.09375 C7.85630859 -0.10083984 8.86886719 -0.10792969 9.91210938 -0.11523438 C12.5 0.5 12.5 0.5 14.33081055 2.72827148 C15.52301062 5.55454992 15.87423847 7.39737229 15.86328125 10.44140625 C15.86263672 11.35470703 15.86199219 12.26800781 15.86132812 13.20898438 C15.84521484 14.15064453 15.82910156 15.09230469 15.8125 16.0625 C15.81733398 17.48079102 15.81733398 17.48079102 15.82226562 18.92773438 C15.76029201 26.89979532 15.76029201 26.89979532 13.5 30.5 C9.38815087 32.55592456 4.08165712 31.72909008 -0.4375 31.75 C-2.10329102 31.7809375 -2.10329102 31.7809375 -3.80273438 31.8125 C-4.86685547 31.81765625 -5.93097656 31.8228125 -7.02734375 31.828125 C-8.49288696 31.84214355 -8.49288696 31.84214355 -9.98803711 31.85644531 C-12.5 31.5 -12.5 31.5 -14.31713867 30.33300781 C-15.96923195 27.77285996 -15.88829741 25.87804991 -15.8984375 22.84375 C-15.90230469 21.73902344 -15.90617187 20.63429688 -15.91015625 19.49609375 C-15.89855469 18.34238281 -15.88695313 17.18867187 -15.875 16 C-15.88660156 14.84628906 -15.89820312 13.69257812 -15.91015625 12.50390625 C-15.90628906 11.39917969 -15.90242188 10.29445313 -15.8984375 9.15625 C-15.89505371 8.14369141 -15.89166992 7.13113281 -15.88818359 6.08789062 C-15.5 3.5 -15.5 3.5 -14.32861328 1.67578125 C-10.25614659 -0.94277677 -4.68048167 -0.01045918 0 0 Z M-6.5 10.5 C-6.520625 12.294375 -6.54125 14.08875 -6.5625 15.9375 C-6.57410156 16.94683594 -6.58570312 17.95617187 -6.59765625 18.99609375 C-6.78612676 21.44021067 -6.78612676 21.44021067 -5.5 22.5 C-1.8308423 22.64310287 1.82715441 22.54221662 5.5 22.5 C5.5 18.54 5.5 14.58 5.5 10.5 C1.54 10.5 -2.42 10.5 -6.5 10.5 Z " fill="#FDFDFE" transform="translate(86.5,28.5)"/>
<path d="M0 0 C1.80887695 -0.03673828 1.80887695 -0.03673828 3.65429688 -0.07421875 C5.38583008 -0.08001953 5.38583008 -0.08001953 7.15234375 -0.0859375 C8.21316162 -0.09415527 9.27397949 -0.10237305 10.36694336 -0.11083984 C13.0625 0.375 13.0625 0.375 14.90698242 2.08740234 C16.2462471 4.73876724 16.44948729 6.4757126 16.4609375 9.4375 C16.46673828 10.87996094 16.46673828 10.87996094 16.47265625 12.3515625 C16.46105469 13.34929687 16.44945313 14.34703125 16.4375 15.375 C16.44910156 16.37273437 16.46070312 17.37046875 16.47265625 18.3984375 C16.46878906 19.36007813 16.46492188 20.32171875 16.4609375 21.3125 C16.45755371 22.18777344 16.45416992 23.06304687 16.45068359 23.96484375 C15.96639154 26.97171871 15.29898177 28.29866868 13.0625 30.375 C10.36694336 30.86083984 10.36694336 30.86083984 7.15234375 30.8359375 C5.99798828 30.83207031 4.84363281 30.82820313 3.65429688 30.82421875 C2.44837891 30.79972656 1.24246094 30.77523437 0 30.75 C-1.20978516 30.74871094 -2.41957031 30.74742188 -3.66601562 30.74609375 C-12.65686759 30.65563241 -12.65686759 30.65563241 -14.9375 28.375 C-15.19628906 25.79296875 -15.19628906 25.79296875 -15.203125 22.5625 C-15.20570312 21.40492187 -15.20828125 20.24734375 -15.2109375 19.0546875 C-15.20320313 17.84039062 -15.19546875 16.62609375 -15.1875 15.375 C-15.19523437 14.16070312 -15.20296875 12.94640625 -15.2109375 11.6953125 C-15.20835938 10.53773437 -15.20578125 9.38015625 -15.203125 8.1875 C-15.20086914 7.12144531 -15.19861328 6.05539063 -15.19628906 4.95703125 C-14.47536931 -2.23584358 -5.44113559 0.00579769 0 0 Z M-5.9375 9.375 C-5.9375 13.335 -5.9375 17.295 -5.9375 21.375 C-2.94752175 22.86998913 -0.23707225 22.49077446 3.0625 22.375 C4.0525 22.045 5.0425 21.715 6.0625 21.375 C6.0625 17.415 6.0625 13.455 6.0625 9.375 C2.1025 9.375 -1.8575 9.375 -5.9375 9.375 Z " fill="#FDFCFE" transform="translate(85.9375,63.625)"/>
<path d="M0 0 C1.15459717 -0.00953201 2.30919434 -0.01906403 3.4987793 -0.02888489 C4.75086182 -0.02797348 6.00294434 -0.02706207 7.29296875 -0.02612305 C9.21266479 -0.03255074 9.21266479 -0.03255074 11.17114258 -0.03910828 C13.88138975 -0.04657421 16.59150666 -0.04627633 19.30175781 -0.04101562 C22.77906098 -0.03521639 26.2558323 -0.05216029 29.73304749 -0.0753603 C33.04471081 -0.0936116 36.35625531 -0.08991302 39.66796875 -0.08862305 C40.92005127 -0.09783279 42.17213379 -0.10704254 43.4621582 -0.11653137 C45.19405396 -0.10718819 45.19405396 -0.10718819 46.9609375 -0.09765625 C47.98082764 -0.09828568 49.00071777 -0.0989151 50.05151367 -0.0995636 C50.85306885 0.0239296 51.65462402 0.14742279 52.48046875 0.2746582 C54.48046875 3.2746582 54.48046875 3.2746582 54.10546875 5.9621582 C53.89921875 6.7252832 53.69296875 7.4884082 53.48046875 8.2746582 C50.44559508 9.28628276 48.40471867 9.40137636 45.23046875 9.40405273 C44.15925781 9.4072049 43.08804688 9.41035706 41.984375 9.41360474 C40.82808594 9.41158051 39.67179687 9.40955627 38.48046875 9.4074707 C36.69962891 9.40890579 36.69962891 9.40890579 34.8828125 9.41036987 C32.37109321 9.41105079 29.85937216 9.40920265 27.34765625 9.4050293 C23.49605366 9.39967985 19.6445677 9.40497731 15.79296875 9.41137695 C13.35546849 9.41071616 10.91796831 9.40943496 8.48046875 9.4074707 C7.32417969 9.40949493 6.16789062 9.41151917 4.9765625 9.41360474 C3.90535156 9.41045258 2.83414063 9.40730042 1.73046875 9.40405273 C0.786875 9.40325714 -0.15671875 9.40246155 -1.12890625 9.40164185 C-3.51953125 9.2746582 -3.51953125 9.2746582 -6.51953125 8.2746582 C-7.14453125 5.3996582 -7.14453125 5.3996582 -7.51953125 2.2746582 C-4.88139701 -0.36347604 -3.68099498 0.01662903 0 0 Z " fill="#FAF9FC" transform="translate(115.51953125,32.725341796875)"/>
<path d="M0 0 C1.06367294 0.00222061 2.12734589 0.00444122 3.22325134 0.00672913 C5.02500572 0.00684242 5.02500572 0.00684242 6.86315918 0.00695801 C8.17042465 0.01211929 9.47769012 0.01728058 10.8245697 0.02259827 C12.16835477 0.02446253 13.51214052 0.02588639 14.85592651 0.02688599 C18.39873622 0.0307105 21.94150515 0.0405402 25.48429871 0.05158997 C29.09706572 0.06180552 32.7098393 0.06638392 36.32261658 0.07142639 C43.41573225 0.08216254 50.50882019 0.09923816 57.60191345 0.12025452 C58.22691345 2.99525452 58.22691345 2.99525452 58.60191345 6.12025452 C55.96175534 8.76041263 54.76568836 8.37329705 51.0823822 8.37904358 C49.35048645 8.38850006 49.35048645 8.38850006 47.58360291 8.39814758 C46.33152039 8.39409912 45.07943787 8.39005066 43.78941345 8.38587952 C42.50961609 8.38779297 41.22981873 8.38970642 39.91123962 8.39167786 C37.20098552 8.39462833 34.49086319 8.39033407 31.78062439 8.3809967 C28.30342115 8.36960204 24.82652663 8.37616195 21.34933472 8.38814163 C18.03766941 8.39709877 14.72608754 8.39083087 11.41441345 8.38587952 C9.53628967 8.39195221 9.53628967 8.39195221 7.620224 8.39814758 C6.46562683 8.39184326 5.31102966 8.38553894 4.1214447 8.37904358 C3.10155457 8.37745239 2.08166443 8.37586121 1.03086853 8.3742218 C-1.39808655 8.12025452 -1.39808655 8.12025452 -3.39808655 6.12025452 C-3.58558655 3.55775452 -3.58558655 3.55775452 -3.39808655 1.12025452 C-2.39808655 0.12025452 -2.39808655 0.12025452 0 0 Z " fill="#FEFDFF" transform="translate(111.39808654785156,67.87974548339844)"/>
<path d="M0 0 C0.8910997 -0.00960754 1.7821994 -0.01921509 2.70030212 -0.02911377 C3.66488846 -0.03336365 4.62947479 -0.03761353 5.62329102 -0.04199219 C7.10660667 -0.0505423 7.10660667 -0.0505423 8.61988831 -0.05926514 C10.71386645 -0.06872095 12.80785951 -0.07525142 14.90185547 -0.07910156 C18.11069555 -0.08881722 21.31889797 -0.11983941 24.52758789 -0.15136719 C26.55948512 -0.15789608 28.59138694 -0.163147 30.62329102 -0.16699219 C32.06713417 -0.18551239 32.06713417 -0.18551239 33.54014587 -0.20440674 C34.88152367 -0.19990509 34.88152367 -0.19990509 36.25 -0.1953125 C37.43008888 -0.20078094 37.43008888 -0.20078094 38.63401794 -0.20635986 C41.22676597 0.25714429 42.13480677 1.06455907 43.68969727 3.16113281 C43.56469727 5.72363281 43.56469727 5.72363281 42.68969727 8.16113281 C39.60914827 10.21483215 38.94794276 10.41425783 35.46533203 10.43579102 C34.61757706 10.44532303 33.76982208 10.45485504 32.89637756 10.4646759 C31.98383713 10.4637645 31.07129669 10.46285309 30.13110352 10.46191406 C29.19040512 10.46619919 28.24970673 10.47048431 27.28050232 10.47489929 C25.29085088 10.48064267 23.30117844 10.4811428 21.31152344 10.47680664 C18.26729494 10.47364848 15.22403982 10.49709952 12.17993164 10.52246094 C10.24699016 10.5247341 8.31404606 10.52543735 6.38110352 10.52441406 C5.47058731 10.53362381 4.56007111 10.54283356 3.6219635 10.55232239 C-2.72033095 10.50589567 -2.72033095 10.50589567 -5.91601562 8.63842773 C-6.37613037 8.15092041 -6.83624512 7.66341309 -7.31030273 7.16113281 C-6.93530273 4.22363281 -6.93530273 4.22363281 -6.31030273 1.16113281 C-3.98179907 -0.00311902 -2.59375894 0.02253405 0 0 Z " fill="#FEFDFE" transform="translate(115.310302734375,46.8388671875)"/>
<path d="M0 0 C1.40166664 -0.00956978 1.40166664 -0.00956978 2.83164978 -0.01933289 C3.84828201 -0.02044571 4.86491425 -0.02155853 5.91235352 -0.02270508 C6.94940933 -0.02603348 7.98646515 -0.02936188 9.0549469 -0.03279114 C11.25326085 -0.03786493 13.45158254 -0.04019932 15.64990234 -0.04003906 C19.02332177 -0.04222471 22.39641394 -0.06037347 25.76977539 -0.0793457 C27.90063364 -0.08227962 30.03149345 -0.08426443 32.16235352 -0.08520508 C33.17696152 -0.09239059 34.19156952 -0.09957611 35.23692322 -0.10697937 C36.17451981 -0.10390274 37.11211639 -0.10082611 38.078125 -0.09765625 C38.90561752 -0.09908127 39.73311005 -0.10050629 40.5856781 -0.10197449 C42.60375977 0.14526367 42.60375977 0.14526367 44.60375977 2.14526367 C44.04820421 6.70081923 44.04820421 6.70081923 42.60375977 8.14526367 C39.86874692 8.38951509 37.15724958 8.57289265 34.41625977 8.70776367 C33.6005249 8.74949707 32.78479004 8.79123047 31.94433594 8.83422852 C19.92847783 9.40993698 7.55706036 9.8037059 -4.39624023 8.14526367 C-5.05624023 7.48526367 -5.71624023 6.82526367 -6.39624023 6.14526367 C-5.7514374 0.85788039 -5.21120758 0.02402824 0 0 Z " fill="#FEFDFF" transform="translate(114.396240234375,81.854736328125)"/>
</svg>
