<?xml version="1.0" encoding="UTF-8"?>
<svg version="1.1" xmlns="http://www.w3.org/2000/svg" width="249" height="255">
<path d="M0 0 C12.751614 9.63534878 22.30193938 24.07009127 25 40 C26.53605535 57.56617146 24.03106522 70.40553614 14 85 C5.93725286 96.9308028 1.68523441 107.79120747 -0.65698242 121.96630859 C-0.80498291 122.84625488 -0.9529834 123.72620117 -1.10546875 124.6328125 C-1.23074951 125.42574707 -1.35603027 126.21868164 -1.48510742 127.03564453 C-2 129 -2 129 -4 131 C-6.68797302 131.27415466 -6.68797302 131.27415466 -10.14624023 131.30639648 C-11.43775497 131.32238388 -12.72926971 131.33837128 -14.05992126 131.35484314 C-15.47614143 131.36121895 -16.89236632 131.36661197 -18.30859375 131.37109375 C-19.75586544 131.38005681 -21.20313615 131.38917859 -22.65040588 131.39845276 C-25.68598688 131.41495466 -28.72145742 131.42264512 -31.75708008 131.42553711 C-35.6492921 131.43092489 -39.54046815 131.46861393 -43.43238735 131.51428127 C-46.42210187 131.54400501 -49.41156541 131.5512596 -52.40141487 131.55226326 C-53.83639335 131.55647437 -55.27137199 131.56894453 -56.70620537 131.58978081 C-58.71208202 131.61659231 -60.71833151 131.60878243 -62.72436523 131.59936523 C-63.86638901 131.60443588 -65.00841278 131.60950653 -66.18504333 131.61473083 C-69 131 -69 131 -70.86166382 128.59016418 C-71.90006452 126.22739267 -72.44069854 124.49929543 -72.66796875 121.953125 C-72.75183838 121.19926514 -72.83570801 120.44540527 -72.92211914 119.66870117 C-73.00969482 118.87052979 -73.09727051 118.0723584 -73.1875 117.25 C-75.10482259 103.18647269 -81.09814839 92.11867971 -89.54882812 80.90087891 C-98.34061421 69.04162899 -99.300045 54.77009754 -97.57421875 40.47265625 C-94.39763868 23.1476275 -85.34794527 9.11729006 -71.0703125 -1.02734375 C-49.06666954 -15.16454438 -21.58939002 -14.37398862 0 0 Z M-76.1796875 19.47265625 C-84.63225528 31.20830293 -88.33263818 44.77514277 -86.375 59.125 C-84.58405095 68.11463388 -80.07091461 74.97555877 -75 82.4375 C-67.84171723 93.02409921 -64.30096815 102.87251986 -61.796875 115.3515625 C-61.38981367 118.79016463 -61.38981367 118.79016463 -60 120 C-58.52645652 120.09304018 -57.04849409 120.11746265 -55.57202148 120.11352539 C-54.63112167 120.11344986 -53.69022186 120.11337433 -52.72080994 120.11329651 C-51.69790359 120.10813522 -50.67499725 120.10297394 -49.62109375 120.09765625 C-48.57929459 120.0962413 -47.53749542 120.09482635 -46.46412659 120.09336853 C-43.12188906 120.0877508 -39.77971743 120.0751953 -36.4375 120.0625 C-34.17773534 120.05748728 -31.91796963 120.05292398 -29.65820312 120.04882812 C-24.10544609 120.03777561 -18.55272775 120.02102024 -13 120 C-11.99014207 116.50695732 -11.00762533 113.03245281 -10.17578125 109.4921875 C-7.36932391 97.73300428 -2.35378667 88.18700906 4.6875 78.375 C12.30328784 67.5416391 15.01583389 56.70923336 13.62890625 43.453125 C11.09582574 29.29304764 4.27194021 17.70224527 -7.41015625 9.2578125 C-9.88350293 7.68208292 -12.38003254 6.31598365 -15 5 C-15.77214844 4.58621094 -16.54429687 4.17242187 -17.33984375 3.74609375 C-37.97392076 -5.60932505 -62.1923422 2.90869471 -76.1796875 19.47265625 Z " fill="#FEFDFE" transform="translate(159,57)"/>
<path d="M0 0 C1.22814926 -0.0127597 2.45629852 -0.02551941 3.72166443 -0.03866577 C5.06322065 -0.0417231 6.40477898 -0.04395104 7.74633789 -0.04541016 C9.12252441 -0.05183746 10.49870955 -0.05856577 11.87489319 -0.06558228 C14.7590756 -0.07755558 17.64313823 -0.08126302 20.52734375 -0.08007812 C24.22088494 -0.07987483 27.91365757 -0.1071861 31.60701656 -0.14162254 C34.44921895 -0.16387285 37.29123575 -0.16791628 40.13351631 -0.16685867 C41.49507867 -0.16921712 42.85664596 -0.17805451 44.21812248 -0.19352341 C46.12317864 -0.21314309 48.02846036 -0.20483314 49.93359375 -0.1953125 C51.55883217 -0.19958755 51.55883217 -0.19958755 53.21690369 -0.20394897 C56.71307271 0.41026926 57.92042014 1.48063773 60.03149414 4.29052734 C59.93771853 11.2768101 55.55700294 16.32683436 51.03149414 21.29052734 C42.3811161 28.09406159 36.04927771 29.48392307 25.34399414 29.54052734 C24.3881543 29.56115234 23.43231445 29.58177734 22.44750977 29.60302734 C12.98270037 29.65464185 5.54835922 27.606175 -1.80834961 21.52099609 C-5.76587359 17.43465578 -9.05768934 12.66424122 -10.96850586 7.29052734 C-9.49995529 0.96584943 -6.01524204 0.04235515 0 0 Z M7.03149414 12.29052734 C12.19292792 17.45196112 17.12143442 19.34873339 24.40649414 19.72802734 C29.89427663 19.53445477 35.1623183 17.77921722 40.03149414 15.29052734 C40.69149414 14.30052734 41.35149414 13.31052734 42.03149414 12.29052734 C30.48149414 12.29052734 18.93149414 12.29052734 7.03149414 12.29052734 Z " fill="#FEFDFF" transform="translate(97.968505859375,205.70947265625)"/>
<path d="M0 0 C1.25147324 -0.00637985 2.50294647 -0.0127597 3.79234314 -0.01933289 C5.16437746 -0.0208615 6.53641229 -0.02197549 7.90844727 -0.02270508 C9.31087783 -0.02591732 10.71330806 -0.02928137 12.11573792 -0.03279114 C15.05714698 -0.03878333 17.99852666 -0.04063094 20.93994141 -0.04003906 C24.71071979 -0.03993742 28.48130996 -0.05359137 32.25204372 -0.07081127 C35.1490821 -0.08192462 38.04607488 -0.08395848 40.9431324 -0.08342934 C42.33341178 -0.08461039 43.7236923 -0.0890392 45.11395073 -0.0967617 C47.05771337 -0.10654788 49.00153106 -0.10242285 50.9453125 -0.09765625 C52.05180649 -0.09908127 53.15830048 -0.10050629 54.29832458 -0.10197449 C57.03735352 0.14526367 57.03735352 0.14526367 60.03735352 2.14526367 C60.41235352 5.64526367 60.41235352 5.64526367 60.03735352 9.14526367 C56.53306925 11.48145318 55.10612477 11.40261534 50.96118164 11.41992188 C49.08408508 11.43421989 49.08408508 11.43421989 47.16906738 11.44880676 C45.80224581 11.44854536 44.43542422 11.44760844 43.06860352 11.44604492 C41.66760124 11.44993181 40.26660015 11.45426647 38.86560059 11.45903015 C35.9301369 11.46649056 32.9947935 11.46620212 30.05932617 11.4609375 C26.29631023 11.45513838 22.53378578 11.4720848 18.77085114 11.49528217 C15.87808348 11.51000736 12.9854346 11.51089299 10.09263611 11.50777245 C8.7051445 11.50828612 7.31764633 11.51353261 5.93019104 11.52358437 C3.99134062 11.5359085 2.05239096 11.52722876 0.11352539 11.51757812 C-1.54169128 11.51852226 -1.54169128 11.51852226 -3.23034668 11.51948547 C-5.96264648 11.14526367 -5.96264648 11.14526367 -7.85412598 9.84855652 C-8.96264648 8.14526367 -8.96264648 8.14526367 -8.77514648 4.52026367 C-8.50702148 3.40651367 -8.23889648 2.29276367 -7.96264648 1.14526367 C-5.23172129 -0.22019893 -3.05698607 0.01053869 0 0 Z " fill="#FEFDFF" transform="translate(96.962646484375,191.854736328125)"/>
<path d="M0 0 C2.125 1.625 2.125 1.625 3 4 C2.4140625 7.015625 2.4140625 7.015625 1 10 C-1.609375 11.3203125 -1.609375 11.3203125 -4.75 12.125 C-13.59067147 14.70220889 -18.80038342 18.65679793 -23.5859375 26.6484375 C-25.58838745 31.39457578 -25.76274356 35.97719788 -26.08398438 41.07421875 C-26.27734375 43.296875 -26.27734375 43.296875 -27 47 C-29.43866175 48.95293241 -30.5127549 49.02320215 -33.625 48.875 C-36 48 -36 48 -37.12890625 46.296875 C-40.0182873 38.67823798 -38.16049851 29.26675226 -35 22 C-30.06112835 12.51799962 -22.06368467 4.81428734 -12 1 C-7.84096584 -0.21647639 -4.32743667 -0.34344735 0 0 Z " fill="#FEFDFF" transform="translate(118,68)"/>
<path d="M0 0 C3.75289653 1.00621139 6.74708945 2.66585953 9.984375 4.7421875 C10.56058594 5.09410156 11.13679688 5.44601563 11.73046875 5.80859375 C14.64814667 7.63809342 16.29468982 8.95765973 18.234375 11.8671875 C17.9102381 15.18959074 17.62661197 16.47495053 15.234375 18.8671875 C6.91254977 19.01849341 0.62734038 14.54828642 -5.59765625 9.33203125 C-6.765625 7.8671875 -6.765625 7.8671875 -6.640625 4.8046875 C-5.47165455 0.88028671 -4.12654613 -0.19816747 0 0 Z " fill="#FEFDFF" transform="translate(193.765625,152.1328125)"/>
<path d="M0 0 C2.91677834 1.30487452 4.03419927 2.14428664 5.375 5.0625 C4.16736234 9.75811906 2.07909484 13.71350197 -0.375 17.875 C-1.02984375 19.01582031 -1.6846875 20.15664063 -2.359375 21.33203125 C-4.625 24.0625 -4.625 24.0625 -7.7734375 25.01171875 C-10.625 25.0625 -10.625 25.0625 -12.5 24.0625 C-14.35075546 20.77226806 -14.16096406 18.81424844 -13.625 15.0625 C-6.64956615 0.158323 -6.64956615 0.158323 0 0 Z " fill="#FEFDFF" transform="translate(171.625,27.9375)"/>
<path d="M0 0 C2.375 1.3125 2.375 1.3125 4.375 4.3125 C4.44921875 6.69921875 4.44921875 6.69921875 3.375 9.3125 C1.17746068 11.26629411 -1.26437982 12.67341685 -3.8125 14.125 C-4.47314453 14.53169922 -5.13378906 14.93839844 -5.81445312 15.35742188 C-9.87556888 17.74277615 -12.78966147 18.92229789 -17.625 18.3125 C-19.5625 17.1875 -19.5625 17.1875 -20.625 15.3125 C-20.5859375 12.4609375 -20.5859375 12.4609375 -19.625 9.3125 C-17.4825874 7.57944657 -15.69132423 6.35393552 -13.3125 5.0625 C-12.73048828 4.72476563 -12.14847656 4.38703125 -11.54882812 4.0390625 C-9.92263216 3.10349336 -8.27433541 2.2066452 -6.625 1.3125 C-5.88121094 0.89097656 -5.13742188 0.46945313 -4.37109375 0.03515625 C-2.625 -0.6875 -2.625 -0.6875 0 0 Z " fill="#FEFDFF" transform="translate(207.625,63.6875)"/>
<path d="M0 0 C2.11279291 1.09055853 4.19698626 2.23818921 6.25 3.4375 C7.28640625 4.03433594 8.3228125 4.63117188 9.390625 5.24609375 C12 7 12 7 14 10 C13.44444444 15.55555556 13.44444444 15.55555556 12 17 C6.2908044 17.55456694 2.82577241 16.25326307 -1.8125 13.125 C-2.38419922 12.76019531 -2.95589844 12.39539063 -3.54492188 12.01953125 C-5.91079358 10.49047198 -8.00361409 8.99638591 -10 7 C-10.375 4.0625 -10.375 4.0625 -10 1 C-6.7168201 -3.0408368 -4.43025953 -1.7454155 0 0 Z " fill="#FEFDFF" transform="translate(44,65)"/>
<path d="M0 0 C1.94921875 2.3984375 1.94921875 2.3984375 3.6875 5.375 C4.55955078 6.84066406 4.55955078 6.84066406 5.44921875 8.3359375 C5.96097656 9.21507812 6.47273438 10.09421875 7 11 C7.99 12.485 7.99 12.485 9 14 C9.54330065 20.08496732 9.54330065 20.08496732 7.8125 23 C6 24 6 24 3.5625 24 C0.06937364 22.63682874 -0.89291919 21.12869575 -3 18 C-3.52207031 17.2265625 -4.04414062 16.453125 -4.58203125 15.65625 C-6.97042201 11.94221847 -8.82954315 8.93751266 -9.625 4.5625 C-9 2 -9 2 -7.3125 0.0625 C-4.304745 -1.31944149 -3.1094247 -1.08501073 0 0 Z " fill="#FEFDFF" transform="translate(78,29)"/>
<path d="M0 0 C2 3 2 3 2.0703125 5.87890625 C0.53094684 10.36778641 -2.11949947 11.66338472 -6.125 13.9375 C-6.77726562 14.34806641 -7.42953125 14.75863281 -8.1015625 15.18164062 C-12.73883051 17.90971595 -15.60049492 18.35338244 -21 17 C-21.75 13.75 -21.75 13.75 -22 10 C-19.14186924 6.39381527 -15.55815774 4.38164731 -11.5625 2.1875 C-10.45003906 1.56230469 -9.33757813 0.93710938 -8.19140625 0.29296875 C-4.77610086 -1.09071067 -3.39176708 -1.35790322 0 0 Z " fill="#FEFDFF" transform="translate(56,153)"/>
<path d="M0 0 C0.97130859 0.00322266 1.94261719 0.00644531 2.94335938 0.00976562 C3.91080078 -0.00634766 4.87824219 -0.02246094 5.875 -0.0390625 C6.80376953 -0.03970703 7.73253906 -0.04035156 8.68945312 -0.04101562 C9.54079834 -0.04399658 10.39214355 -0.04697754 11.26928711 -0.05004883 C13.98977158 0.40282082 14.87009434 1.13634514 16.50585938 3.32226562 C16.88085938 5.82226562 16.88085938 5.82226562 16.50585938 8.32226562 C14.90198112 10.43526139 14.01259353 11.229868 11.37695312 11.71044922 C10.57386719 11.71383301 9.77078125 11.7172168 8.94335938 11.72070312 C8.06421875 11.72457031 7.18507813 11.7284375 6.27929688 11.73242188 C5.3640625 11.72082031 4.44882812 11.70921875 3.50585938 11.69726562 C2.13300781 11.71466797 2.13300781 11.71466797 0.73242188 11.73242188 C-0.14671875 11.72855469 -1.02585937 11.7246875 -1.93164062 11.72070312 C-3.13626953 11.71562744 -3.13626953 11.71562744 -4.36523438 11.71044922 C-7.01327 11.22760786 -7.90499607 10.46773649 -9.49414062 8.32226562 C-9.80664062 5.25976562 -9.80664062 5.25976562 -9.49414062 2.32226562 C-6.5626773 -0.6091977 -4.00973316 0.03065119 0 0 Z " fill="#FEFDFF" transform="translate(30.494140625,111.677734375)"/>
<path d="M0 0 C0.93199219 -0.00257812 1.86398438 -0.00515625 2.82421875 -0.0078125 C3.80003906 -0.00007813 4.77585938 0.00765625 5.78125 0.015625 C6.75707031 0.00789063 7.73289063 0.00015625 8.73828125 -0.0078125 C9.67027344 -0.00523438 10.60226563 -0.00265625 11.5625 0 C12.41908203 0.00225586 13.27566406 0.00451172 14.15820312 0.00683594 C16.28125 0.265625 16.28125 0.265625 18.28125 2.265625 C18.59375 5.765625 18.59375 5.765625 18.28125 9.265625 C15.1165986 11.3753926 14.30731227 11.52115105 10.68359375 11.53125 C9.35811523 11.53511719 9.35811523 11.53511719 8.00585938 11.5390625 C7.08611328 11.53132813 6.16636719 11.52359375 5.21875 11.515625 C4.29513672 11.52335937 3.37152344 11.53109375 2.41992188 11.5390625 C1.09637695 11.53519531 1.09637695 11.53519531 -0.25390625 11.53125 C-1.062229 11.52899414 -1.87055176 11.52673828 -2.70336914 11.52441406 C-4.71875 11.265625 -4.71875 11.265625 -6.71875 9.265625 C-6.96875 5.765625 -6.96875 5.765625 -6.71875 2.265625 C-4.22817749 -0.22494751 -3.43402341 0.0090437 0 0 Z " fill="#FEFDFF" transform="translate(205.71875,111.734375)"/>
<path d="M0 0 C2.3720435 2.3720435 1.28108556 8.19167055 1.3125 11.375 C1.34150391 12.34695312 1.37050781 13.31890625 1.40039062 14.3203125 C1.40876953 15.25359375 1.41714844 16.186875 1.42578125 17.1484375 C1.44036377 18.00614746 1.45494629 18.86385742 1.4699707 19.74755859 C1 22 1 22 -0.86254883 23.81494141 C-3 25 -3 25 -5.625 24.8125 C-8 24 -8 24 -10 22 C-10.22705078 19.84521484 -10.22705078 19.84521484 -10.1953125 17.2109375 C-10.18886719 16.26992188 -10.18242188 15.32890625 -10.17578125 14.359375 C-10.15902344 13.37453125 -10.14226562 12.3896875 -10.125 11.375 C-10.11597656 10.38242187 -10.10695313 9.38984375 -10.09765625 8.3671875 C-10.07404116 5.91121866 -10.04110799 3.45572832 -10 1 C-6.74696956 -0.62651522 -3.60774398 -0.11453156 0 0 Z " fill="#FEFDFF" transform="translate(127,17)"/>
</svg>
