<?xml version="1.0" encoding="UTF-8"?>
<svg version="1.1" xmlns="http://www.w3.org/2000/svg" width="112" height="112">
<path d="M0 0 C0.80179688 0.00451172 1.60359375 0.00902344 2.4296875 0.01367188 C4.41149006 0.02546832 6.39325433 0.04340395 8.375 0.0625 C8.375 1.7125 8.375 3.3625 8.375 5.0625 C3.89293698 7.30353151 -1.61390121 6.0625 -6.625 6.0625 C-6.625 19.5925 -6.625 33.1225 -6.625 47.0625 C-2.005 47.0625 2.615 47.0625 7.375 47.0625 C7.705 48.7125 8.035 50.3625 8.375 52.0625 C6.05977196 54.37772804 1.47147078 53.9678067 -1.625 54.0625 C-4.82644765 53.84171051 -7.78914265 53.60570751 -10.625 52.0625 C-13.76306344 47.09917765 -14.06773245 43.08699853 -14.0234375 37.41015625 C-14.02630768 36.59179794 -14.02917786 35.77343964 -14.03213501 34.93028259 C-14.03416843 33.20652572 -14.02868924 31.4827454 -14.01611328 29.7590332 C-14.00006943 27.1363503 -14.01597523 24.51521309 -14.03515625 21.89257812 C-14.03317329 20.21093413 -14.02932851 18.52929109 -14.0234375 16.84765625 C-14.02951019 16.07140396 -14.03558289 15.29515167 -14.0418396 14.49537659 C-13.97575363 9.31769236 -13.06419835 5.65618709 -10.625 1.0625 C-7.31505287 -0.59247356 -3.63377 -0.03834335 0 0 Z " fill="#F5F6F5" transform="translate(45.625,34.9375)"/>
<path d="M0 0 C4.88581155 1.48935519 7.82712189 4.24486741 11.375 7.75 C12.21224609 8.51957031 12.21224609 8.51957031 13.06640625 9.3046875 C15.63097348 11.82492888 16.95379782 13.35568964 17.21484375 16.99609375 C15.59849511 20.99278862 13.28319069 23.37762441 10.1875 26.3125 C9.65318359 26.84939453 9.11886719 27.38628906 8.56835938 27.93945312 C5.8234124 30.61687373 3.82511502 32.44653606 0 33 C-0.66 32.67 -1.32 32.34 -2 32 C-1.64165385 26.08728858 0.53606225 25.20792738 5 20 C-3.25 19.67 -11.5 19.34 -20 19 C-20 17.35 -20 15.7 -20 14 C-15.05385145 13.19377139 -10.34036542 12.86483243 -5.3125 12.875 C-3.38857422 12.87113281 -3.38857422 12.87113281 -1.42578125 12.8671875 C1.28220371 12.97217209 3.442034 13.18404122 6 14 C5.50628906 13.46890625 5.01257813 12.9378125 4.50390625 12.390625 C3.54291016 11.33101562 3.54291016 11.33101562 2.5625 10.25 C1.92441406 9.55390625 1.28632812 8.8578125 0.62890625 8.140625 C-1.00608421 5.99200444 -1.78021397 4.68251671 -2 2 C-1.34 1.34 -0.68 0.68 0 0 Z " fill="#F6F6F5" transform="translate(69,45)"/>
<path d="M0 0 C0.66 0.66 1.32 1.32 2 2 C1 3 1 3 -1.50024414 3.11352539 C-2.58426514 3.10828857 -3.66828613 3.10305176 -4.78515625 3.09765625 C-5.95498047 3.09443359 -7.12480469 3.09121094 -8.33007812 3.08789062 C-9.56177734 3.07951172 -10.79347656 3.07113281 -12.0625 3.0625 C-13.91584961 3.05573242 -13.91584961 3.05573242 -15.80664062 3.04882812 C-18.87114117 3.03699608 -21.93554721 3.02051173 -25 3 C-25 3.99 -25 4.98 -25 6 C-16.42 6 -7.84 6 1 6 C1 6.99 1 7.98 1 9 C0.34 8.67 -0.32 8.34 -1 8 C-2.88472859 7.84655791 -4.77427874 7.75040429 -6.6640625 7.68359375 C-8.34628906 7.62075195 -8.34628906 7.62075195 -10.0625 7.55664062 C-11.238125 7.51732422 -12.41375 7.47800781 -13.625 7.4375 C-14.80835938 7.39431641 -15.99171875 7.35113281 -17.2109375 7.30664062 C-20.14050328 7.20032574 -23.07015588 7.09829358 -26 7 C-26 5.35 -26 3.7 -26 2 C-21.05385145 1.19377139 -16.34036542 0.86483243 -11.3125 0.875 C-9.38857422 0.87113281 -9.38857422 0.87113281 -7.42578125 0.8671875 C-4.71779629 0.97217209 -2.557966 1.18404122 0 2 C0 1.34 0 0.68 0 0 Z " fill="#FDFEFB" transform="translate(75,57)"/>
</svg>
