<?xml version="1.0" encoding="UTF-8"?>
<svg version="1.1" xmlns="http://www.w3.org/2000/svg" width="254" height="270">
<path d="M0 0 C1.23219269 -0.01424011 2.46438538 -0.02848022 3.73391724 -0.04315186 C5.09150686 -0.04369808 6.44909667 -0.04390019 7.8066864 -0.04379272 C9.24271043 -0.05441165 10.67872594 -0.06624279 12.11473083 -0.07919312 C16.00950073 -0.10993351 19.9040869 -0.12111051 23.79896569 -0.12683535 C26.23449993 -0.1311939 28.66998679 -0.13957194 31.10550499 -0.14933395 C39.60862534 -0.18306735 48.11160704 -0.20021374 56.61479187 -0.20297241 C64.53067198 -0.20600623 72.44577056 -0.24644251 80.36142379 -0.30412066 C87.16586979 -0.351949 93.97005824 -0.37270453 100.77467126 -0.37276304 C104.83511262 -0.37330033 108.89478843 -0.38481436 112.95505714 -0.42393875 C116.7763064 -0.45988818 120.59613208 -0.46203616 124.41746521 -0.43876648 C125.81545007 -0.43591414 127.21351991 -0.44490014 128.61133385 -0.46694565 C134.70912562 -0.55711047 140.45948605 -0.59869687 145.70632935 2.8142395 C151.30730573 8.77780306 149.94410438 18.11595235 149.84355164 25.74819946 C149.84784586 27.63273166 149.855605 29.51725868 149.86656189 31.40176392 C149.88592033 36.50948407 149.85538308 41.61580228 149.81474972 46.72335291 C149.77957239 52.07014992 149.78665851 57.4169048 149.78819275 62.76379395 C149.78444896 71.7402793 149.74974933 80.7162231 149.69511414 89.6925354 C149.63217616 100.07132874 149.61112316 110.44952952 149.61405635 120.82849991 C149.61649743 130.81478543 149.59607868 140.80087801 149.5628891 150.78710556 C149.5487658 155.03660462 149.54143729 159.28603541 149.53931427 163.53555679 C149.53529692 168.5376937 149.51088246 173.53933291 149.47064972 178.54130554 C149.45896472 180.3774956 149.45404525 182.21374294 149.45635986 184.04996872 C149.45832298 186.55538723 149.43570391 189.05941198 149.40672302 191.56463623 C149.41291743 192.29235926 149.41911184 193.02008229 149.42549396 193.76985753 C149.33344471 198.5832922 148.2555978 201.00703249 144.87187195 204.40786743 C141.40143538 206.86735074 137.78646619 206.80150108 133.62187195 207.03286743 C131.72695007 207.14501587 131.72695007 207.14501587 129.79374695 207.25942993 C128.8295282 207.30841431 127.86530945 207.35739868 126.87187195 207.40786743 C126.82030945 208.26509399 126.76874695 209.12232056 126.71562195 210.00552368 C125.67122447 220.5325755 125.67122447 220.5325755 121.62187195 224.72036743 C116.07175721 228.89323148 109.46859015 227.99156581 102.87187195 227.40786743 C102.89507507 228.28829712 102.9182782 229.16872681 102.94218445 230.07583618 C102.96023132 231.23728149 102.9782782 232.39872681 102.99687195 233.59536743 C103.02007507 234.74392212 103.0432782 235.89247681 103.06718445 237.07583618 C102.77653762 242.03427107 101.6144588 244.95558936 98.17436218 248.51242065 C92.75545644 253.01396361 86.30307925 252.24749382 79.6023407 252.18423462 C78.1545402 252.19237362 76.70675214 252.20306165 75.25898743 252.21609497 C71.34138955 252.24336645 67.42474342 252.23287791 63.50712967 252.21382046 C59.39976258 252.19858742 55.2924748 252.21272946 51.18510437 252.22213745 C44.28855315 252.23304117 37.39238794 252.21870004 30.49589539 252.19009399 C22.53225996 252.15744216 14.56954629 252.16802006 6.60593319 252.20105243 C-0.24189909 252.22831543 -7.08945453 252.23210555 -13.93732357 252.21642041 C-18.02269529 252.20708525 -22.1076343 252.20576596 -26.19297791 252.22563934 C-30.03476037 252.24302383 -33.8753592 252.23085782 -37.71701431 252.1962738 C-39.12343509 252.18836743 -40.52995619 252.19057268 -41.93633652 252.20384979 C-53.86109923 252.30601365 -53.86109923 252.30601365 -58.45747375 248.54684448 C-62.43155342 244.52798476 -62.27667619 240.31845365 -62.27529907 234.95027161 C-62.27897576 234.18423388 -62.28265245 233.41819616 -62.28644055 232.62894517 C-62.29748068 230.05418791 -62.30132176 227.479471 -62.30513 224.9046936 C-62.31139434 223.0617917 -62.31804111 221.21889107 -62.32504272 219.37599182 C-62.34245348 214.36353416 -62.35300441 209.35108604 -62.36124825 204.33860564 C-62.3663976 201.20795193 -62.37247332 198.07730118 -62.37875938 194.94664955 C-62.39781053 185.15426412 -62.41204259 175.36188624 -62.42037135 165.56948584 C-62.43014854 154.26051627 -62.45648099 142.95174219 -62.49687225 131.64284152 C-62.52701225 122.90475363 -62.54183816 114.16672184 -62.54515237 105.42858297 C-62.54750499 100.20809562 -62.55649323 94.98781714 -62.58161354 89.76738548 C-62.60486266 84.8565232 -62.60914021 79.94600777 -62.59885216 75.03510475 C-62.59835594 73.2331591 -62.60470164 71.43119656 -62.6184082 69.62930298 C-62.63608316 67.16792333 -62.62904339 64.70779445 -62.61587524 62.24641418 C-62.62684449 61.53443931 -62.63781374 60.82246444 -62.64911538 60.08891457 C-62.5845673 55.08677347 -61.25078723 52.2672271 -58.12812805 48.40786743 C-52.70372417 44.33956452 -46.59744307 45.12522746 -40.12812805 45.40786743 C-40.1745343 44.63442993 -40.22094055 43.86099243 -40.26875305 43.06411743 C-40.50490856 36.24934408 -40.2993967 30.99198514 -36.12812805 25.40786743 C-31.36614897 20.87818001 -27.88184819 20.28159297 -21.44062805 20.34536743 C-19.67138977 20.35890259 -19.67138977 20.35890259 -17.8664093 20.37271118 C-16.96277649 20.38431274 -16.05914368 20.39591431 -15.12812805 20.40786743 C-15.1745343 19.76720337 -15.22094055 19.12653931 -15.26875305 18.46646118 C-15.53337759 12.12492325 -14.9836087 8.51377424 -11.12812805 3.40786743 C-7.34684994 0.62245005 -4.65875995 0.02756983 0 0 Z M-5.96253395 9.47380638 C-7.74453722 12.43067028 -7.5408844 15.38247633 -7.50907898 18.73379517 C-7.51375895 19.48561538 -7.51843892 20.23743559 -7.52326071 21.01203823 C-7.53525495 23.53869043 -7.52573645 26.06480467 -7.51631165 28.59146118 C-7.52037539 30.39982419 -7.52571615 32.20818472 -7.53224182 34.01654053 C-7.54594472 38.93382452 -7.54060452 43.85092017 -7.53110456 48.76820755 C-7.52352335 53.90778369 -7.53054929 59.04734341 -7.53526306 64.18692017 C-7.54072511 72.81886702 -7.53351723 81.45073694 -7.51924133 90.08267212 C-7.50291397 100.07053639 -7.50820216 110.05821696 -7.52472055 120.04607677 C-7.53832263 128.61258361 -7.54026134 137.17903506 -7.53240454 145.7455492 C-7.52772099 150.86583786 -7.52712187 155.9860401 -7.53701401 161.10632324 C-7.54566282 165.91948953 -7.53970003 170.73241836 -7.52233124 175.54555893 C-7.51835522 177.31488526 -7.51951941 179.08423147 -7.52611923 180.85354996 C-7.534281 183.26328549 -7.52407893 185.67225347 -7.50907898 188.0819397 C-7.51911723 189.1396641 -7.51911723 189.1396641 -7.52935827 190.21875668 C-7.49551299 193.00947942 -7.43489704 194.95140913 -5.85431862 197.30323792 C-2.25344365 199.60752161 1.25560492 199.53445616 5.44436646 199.5415802 C7.14564194 199.54797768 7.14564194 199.54797768 8.88128662 199.55450439 C10.74145668 199.55382462 10.74145668 199.55382462 12.63920593 199.5531311 C13.9484906 199.55648972 15.25777527 199.55984833 16.60673523 199.56330872 C20.19556728 199.57213796 23.78437548 199.57448636 27.37321734 199.5751245 C29.61590049 199.57583553 31.85857759 199.57797082 34.10125923 199.58062172 C41.92657481 199.58987102 49.75187335 199.59395706 57.57719421 199.59317017 C64.86967105 199.59256922 72.16207396 199.60312531 79.45453209 199.61891383 C85.71791222 199.63199078 91.98126819 199.63735401 98.24466187 199.63671476 C101.98447874 199.63645985 105.72422987 199.6393072 109.46403313 199.64989281 C113.63445466 199.66137531 117.80471048 199.65682603 121.97514343 199.65078735 C123.21323257 199.65640686 124.45132172 199.66202637 125.72692871 199.66781616 C127.43243393 199.66152443 127.43243393 199.66152443 129.1723938 199.65510559 C130.15812598 199.65565036 131.14385817 199.65619513 132.15946102 199.6567564 C135.33886323 199.36501663 138.53909147 198.74064791 140.87187195 196.40786743 C140.97616871 194.02408568 141.01520412 191.66902779 141.01231384 189.28448486 C141.01528497 188.53028995 141.01825609 187.77609504 141.02131724 186.99904573 C141.03004181 184.45252868 141.03151564 181.90605843 141.03300476 179.35952759 C141.03763027 177.54160968 141.04265457 175.72369276 141.04804993 173.90577698 C141.06120147 168.95331374 141.06762421 164.00086408 141.07206059 159.0483861 C141.07498681 155.95763368 141.07909074 152.86688502 141.08356476 149.77613449 C141.0972468 140.11562829 141.10691005 130.45513061 141.11076665 120.79461539 C141.11524963 109.62486194 141.13280571 98.45523074 141.16176724 87.28551447 C141.1833497 78.66386017 141.19346908 70.04224034 141.19480777 61.42055929 C141.19585825 56.26557118 141.20181742 51.11069785 141.21962738 45.95573807 C141.23604884 41.1081521 141.23829255 36.26076793 141.22948837 31.41316414 C141.22871481 29.63092956 141.23310242 27.84868439 141.24294662 26.06647682 C141.25557104 23.63914659 141.24984182 21.21254143 141.23936462 18.78521729 C141.24742103 18.07481249 141.25547743 17.3644077 141.26377797 16.6324755 C141.23588763 13.88237775 141.14172489 11.85670024 139.70711899 9.4705925 C137.11032942 7.96688575 135.13660714 8.03017352 132.14042664 8.0269165 C130.94582825 8.01845703 129.75122986 8.00999756 128.52043152 8.00128174 C127.20812561 8.00735443 125.8958197 8.01342712 124.54374695 8.01968384 C123.14917082 8.0156192 121.75459792 8.01027793 120.36003113 8.00375366 C116.57079188 7.99006119 112.78179731 7.99538655 108.99255371 8.00489092 C105.03011915 8.01247757 101.06770576 8.00544468 97.10527039 8.00073242 C90.45060966 7.99527196 83.79604877 8.00247407 77.1414032 8.01675415 C69.44384638 8.03308127 61.74652793 8.02779297 54.0489769 8.01127493 C47.4442325 7.99766831 40.83955994 7.99573635 34.23480606 8.00359094 C30.28822674 8.00827202 26.34175953 8.00888046 22.39518738 7.99898148 C18.68511782 7.990326 14.97535607 7.9963074 11.26531982 8.01366425 C9.25132167 8.01953425 7.23729753 8.01060145 5.22331238 8.00128174 C3.43141479 8.01397095 3.43141479 8.01397095 1.60331726 8.0269165 C0.56282227 8.02804758 -0.47767273 8.02917866 -1.54969788 8.03034401 C-4.10247683 8.24088435 -4.10247683 8.24088435 -5.96253395 9.47380638 Z M-29.48742771 29.92685604 C-31.66688156 33.22255221 -31.68161068 36.0319849 -31.6293335 39.85404968 C-31.63486789 40.60672432 -31.64040229 41.35939896 -31.6461044 42.13488191 C-31.65972479 44.65858537 -31.64473491 47.18130221 -31.62983704 49.70498657 C-31.63361969 51.51349813 -31.63911929 53.3220068 -31.64620972 55.13050842 C-31.66018763 60.04366232 -31.64897861 64.95646694 -31.6324985 69.86960149 C-31.61866488 75.00650013 -31.62510607 80.14337816 -31.62863159 85.2802887 C-31.63133481 93.90628704 -31.61784769 102.53214632 -31.59468079 111.15811157 C-31.56806195 121.1386192 -31.56632622 131.11889441 -31.57806915 141.09942538 C-31.58883808 150.69214742 -31.58266737 160.28478519 -31.56851387 169.87750053 C-31.56274722 173.96398339 -31.56284205 178.05040472 -31.56757927 182.1368885 C-31.5723421 186.94597778 -31.56227626 191.75481164 -31.54062462 196.56385231 C-31.5350474 198.33156218 -31.53459998 200.09929655 -31.53957748 201.86700821 C-31.54550772 204.27451441 -31.53306956 206.68123367 -31.51580811 209.08866882 C-31.52181815 209.79313631 -31.5278282 210.49760379 -31.53402036 211.22341877 C-31.49726232 214.03016435 -31.42114212 215.96773218 -29.84297276 218.33829403 C-26.6863539 220.30712279 -22.91591797 219.89287204 -19.30000305 219.91958618 C-17.89533783 219.9467849 -17.89533783 219.9467849 -16.46229553 219.97453308 C-13.26760609 220.03086323 -10.07315394 220.06392447 -6.87812805 220.09536743 C-4.60012808 220.12656724 -2.3221334 220.15815507 -0.04414368 220.19009399 C7.44327576 220.28504043 14.93077712 220.34101445 22.41859436 220.39098358 C25.01020843 220.40881949 27.60180572 220.42836633 30.19340515 220.44821167 C41.9367241 220.53696936 53.67991042 220.60011724 65.42350769 220.63702393 C69.39206392 220.64965197 73.36052025 220.66841973 77.32902527 220.69213867 C82.06698738 220.71957611 86.80475418 220.73160368 91.54279327 220.73213005 C93.31031033 220.73468421 95.07782817 220.74236685 96.84529877 220.75543404 C99.28341454 220.77245907 101.72083034 220.77072811 104.15898132 220.76431274 C105.22755056 220.77814011 105.22755056 220.77814011 106.31770706 220.79224682 C110.65481983 220.75574893 113.45999591 220.13878963 116.87187195 217.40786743 C118.03648621 213.91402464 118.00755514 211.07131354 117.87187195 207.40786743 C116.88528101 206.20111547 116.88528101 206.20111547 114.99358368 206.28761292 C114.16551964 206.28983353 113.3374556 206.29205414 112.48429871 206.29434204 C111.06292603 206.29444778 111.06292603 206.29444778 109.61283875 206.29455566 C108.56458923 206.29972198 107.51633972 206.30488831 106.43632507 206.31021118 C104.78993042 206.31240158 104.78993042 206.31240158 103.11027527 206.31463623 C100.716477 206.31845372 98.32268159 206.32458221 95.92889404 206.33270264 C92.13737933 206.34542024 88.34589944 206.35197084 84.55436707 206.35684204 C75.81043254 206.36927678 67.06653047 206.39086908 58.32261658 206.41307068 C49.69360562 206.43489753 41.06461091 206.45276373 32.43557739 206.46380615 C28.70602683 206.47027566 24.97652771 206.4827889 21.24699402 206.49551392 C18.94552149 206.49914895 16.64404849 206.50250037 14.34257507 206.50552368 C12.79449158 206.51327316 12.79449158 206.51327316 11.21513367 206.5211792 C-6.30318432 206.52245217 -6.30318432 206.52245217 -12.12812805 201.40786743 C-14.20849161 197.3904231 -14.38638334 193.95156843 -14.40660095 189.46662903 C-14.41239335 188.78040366 -14.41818576 188.09417829 -14.42415369 187.38715822 C-14.44111753 185.09477821 -14.44402702 182.80259998 -14.44697571 180.51016235 C-14.45627639 178.86412057 -14.46644527 177.2180835 -14.47741699 175.572052 C-14.50471527 171.10762442 -14.51986591 166.6432284 -14.53284502 162.17873931 C-14.54847628 157.51153301 -14.57526653 152.84439113 -14.60087585 148.17723083 C-14.64766369 139.34113774 -14.6844078 130.50503252 -14.71754873 121.66887885 C-14.75577006 111.60845501 -14.8051802 101.54809587 -14.85553288 91.48772657 C-14.95885282 70.79448797 -15.04811305 50.10120841 -15.12812805 29.40786743 C-17.04111944 29.13114541 -18.95890741 28.88743928 -20.87812805 28.65786743 C-22.47914368 28.44903931 -22.47914368 28.44903931 -24.11250305 28.23599243 C-27.17175808 28.1619593 -27.17175808 28.1619593 -29.48742771 29.92685604 Z M-52.99103737 54.4617157 C-54.7277812 57.43418488 -54.54083582 60.38759487 -54.50907898 63.73379517 C-54.51375895 64.48561538 -54.51843892 65.23743559 -54.52326071 66.01203823 C-54.53525495 68.53869043 -54.52573645 71.06480467 -54.51631165 73.59146118 C-54.52037539 75.39982419 -54.52571615 77.20818472 -54.53224182 79.01654053 C-54.54594472 83.93382452 -54.54060452 88.85092017 -54.53110456 93.76820755 C-54.52352335 98.90778369 -54.53054929 104.04734341 -54.53526306 109.18692017 C-54.54072511 117.81886702 -54.53351723 126.45073694 -54.51924133 135.08267212 C-54.50291397 145.07053639 -54.50820216 155.05821696 -54.52472055 165.04607677 C-54.53832263 173.61258361 -54.54026134 182.17903506 -54.53240454 190.7455492 C-54.52772099 195.86583786 -54.52712187 200.9860401 -54.53701401 206.10632324 C-54.54566282 210.91948953 -54.53970003 215.73241836 -54.52233124 220.54555893 C-54.51835522 222.31488526 -54.51951941 224.08423147 -54.52611923 225.85354996 C-54.534281 228.26328549 -54.52407893 230.67225347 -54.50907898 233.0819397 C-54.51911723 234.1396641 -54.51911723 234.1396641 -54.52935827 235.21875668 C-54.49615007 237.95694862 -54.3933345 239.96806685 -52.96211338 242.34150791 C-50.36893561 243.84929522 -48.39848772 243.78854426 -45.40341187 243.79554749 C-44.21025864 243.80545212 -43.01710541 243.81535675 -41.78779602 243.82556152 C-39.82169373 243.81880905 -39.82169373 243.81880905 -37.81587219 243.81192017 C-36.42291719 243.81762179 -35.02996686 243.82458525 -33.63702393 243.8327179 C-29.8518626 243.8506881 -26.06693259 243.8494737 -22.28174138 243.84377551 C-19.12309863 243.84068905 -15.96450066 243.84677007 -12.80586427 243.85281426 C-5.35473541 243.86687069 2.09627883 243.86528908 9.54740906 243.85391235 C17.23704365 243.84243098 24.92632948 243.85650437 32.6159181 243.88330883 C39.21558686 243.90545358 45.81514606 243.91210597 52.41484934 243.90623242 C56.3575933 243.90285854 60.3001137 243.90530613 64.24282646 243.92248344 C67.95050237 243.93793112 71.65766108 243.93402192 75.36531639 243.9151783 C77.37555616 243.90972472 79.38581903 243.9240232 81.39601135 243.93887329 C82.59198441 243.92903915 83.78795746 243.91920502 85.02017212 243.90907288 C86.05974532 243.90886359 87.09931852 243.90865431 88.17039394 243.90843868 C91.56578778 243.27928807 92.75336775 242.07841456 94.87187195 239.40786743 C95.38644497 237.42157585 95.38644497 237.42157585 95.18437195 235.40786743 C95.15987976 234.74786743 95.13538757 234.08786743 95.1101532 233.40786743 C94.86414817 231.34303834 94.39215504 229.41882572 93.87187195 227.40786743 C93.2383399 227.40640087 92.60480785 227.40493431 91.95207787 227.40342331 C76.52789103 227.36635137 61.10396731 227.30733179 45.67996788 227.22396469 C38.22098307 227.18417647 30.76210374 227.15178295 23.30302429 227.13687134 C16.80072505 227.12385361 10.29865789 227.09688614 3.79648936 227.05325437 C0.35444003 227.03064189 -3.08732308 227.01495659 -6.52945328 227.01598358 C-10.37459559 227.01686919 -14.21915382 226.98660718 -18.06416321 226.95376587 C-19.20208313 226.95879623 -20.34000305 226.9638266 -21.5124054 226.9690094 C-31.76068317 226.83342369 -31.76068317 226.83342369 -36.12812805 222.40786743 C-40.28563585 215.07496615 -39.53002409 206.91211601 -39.46870422 198.72036743 C-39.46785704 197.13300086 -39.46833487 195.54563311 -39.47003174 193.95826721 C-39.47088957 189.6674514 -39.45329833 185.37688914 -39.43230987 181.08613205 C-39.41350758 176.59516447 -39.41178983 172.10419056 -39.40823364 167.6131897 C-39.39892359 159.11710974 -39.37432393 150.62114612 -39.34418517 142.1251173 C-39.31060874 132.44919518 -39.29414701 122.77326739 -39.27909887 113.09730148 C-39.24777343 93.20075863 -39.19503321 73.30432037 -39.12812805 53.40786743 C-41.06493966 53.3267916 -43.00272145 53.26864269 -44.94062805 53.22036743 C-46.01957336 53.18556274 -47.09851868 53.15075806 -48.2101593 53.11489868 C-51.05764606 53.20284369 -51.05764606 53.20284369 -52.99103737 54.4617157 Z " fill="#FAF9FC" transform="translate(85.12812805175781,7.592132568359375)"/>
<path d="M0 0 C1.18131248 -0.01879967 1.18131248 -0.01879967 2.38648987 -0.03797913 C3.2230864 -0.02472092 4.05968292 -0.01146271 4.92163086 0.00219727 C6.22855141 -0.00142067 6.22855141 -0.00142067 7.56187439 -0.00511169 C9.39839239 -0.00413474 11.23494038 0.00922273 13.07128906 0.03417969 C15.88114379 0.06853833 18.68786067 0.05481999 21.49780273 0.03540039 C23.28492548 0.04229785 25.07204013 0.05196933 26.85913086 0.06469727 C27.69775162 0.0597374 28.53637238 0.05477753 29.40040588 0.04966736 C35.21731032 0.16710703 35.21731032 0.16710703 38.32177734 2.54150391 C40.81530597 6.01007396 40.95736659 8.03542113 40.98510742 12.28662109 C40.99471497 13.47157669 41.00432251 14.65653229 41.01422119 15.87739563 C41.01847107 17.16381454 41.02272095 18.45023346 41.02709961 19.77563477 C41.03279968 21.0927092 41.03849976 22.40978363 41.04437256 23.76676941 C41.05488286 26.55854682 41.06072499 29.35029543 41.06420898 32.14208984 C41.06968696 35.71322244 41.09369938 39.28397245 41.12218094 42.85498524 C41.14532993 46.26602772 41.1472588 49.6770178 41.15209961 53.08813477 C41.16444641 54.36848099 41.17679321 55.64882721 41.18951416 56.9679718 C41.18651306 58.16238388 41.18351196 59.35679596 41.18041992 60.58740234 C41.18588837 62.16053947 41.18588837 62.16053947 41.19146729 63.76545715 C40.76369673 67.10114032 39.81684293 68.94166625 37.82397461 71.63110352 C34.04122027 74.15293974 30.99667342 73.93701902 26.61303711 73.93188477 C25.80788666 73.93616989 25.00273621 73.94045502 24.17318726 73.94487 C22.47020406 73.95061113 20.76719634 73.95111514 19.06420898 73.94677734 C16.46547281 73.94362354 13.86788202 73.96705666 11.26928711 73.99243164 C9.61303854 73.99470536 7.95678692 73.99540779 6.30053711 73.99438477 C5.52642487 74.00359451 4.75231262 74.01280426 3.95474243 74.02229309 C-1.87079881 73.97263424 -5.0963184 72.71081051 -9.17602539 68.63110352 C-9.45018005 66.03251648 -9.45018005 66.03251648 -9.48242188 62.70019531 C-9.49840927 61.45517746 -9.51439667 60.21015961 -9.53086853 58.92741394 C-9.53724578 57.56172086 -9.54263835 56.19602288 -9.54711914 54.83032227 C-9.55608429 53.43268231 -9.56520611 52.03504335 -9.57447815 50.6374054 C-9.59098282 47.70437284 -9.59867059 44.7714546 -9.6015625 41.83837891 C-9.6069402 38.08534995 -9.64458609 34.33340054 -9.69030666 30.58067608 C-9.72010031 27.69210424 -9.72728657 24.80379124 -9.72828865 21.91507912 C-9.73248848 20.53199139 -9.74491362 19.14890271 -9.7658062 17.76596642 C-9.79275249 15.8275607 -9.78478269 13.88876556 -9.77539062 11.95019531 C-9.78046127 10.84814255 -9.78553192 9.74608978 -9.79075623 8.61064148 C-8.7367274 3.50187073 -5.34469482 0.00747762 0 0 Z M-0.17602539 8.63110352 C-1.45957797 11.19820867 -1.2578681 12.94306318 -1.19775391 15.81518555 C-1.17765762 16.89615509 -1.15756134 17.97712463 -1.13685608 19.09085083 C-1.10982101 20.26171234 -1.08278595 21.43257385 -1.05493164 22.63891602 C-1.03132065 23.83467255 -1.00770966 25.03042908 -0.98338318 26.26242065 C-0.90661247 30.09376505 -0.82264571 33.92491411 -0.73852539 37.75610352 C-0.68531814 40.34854177 -0.63257767 42.94098965 -0.58032227 45.53344727 C-0.45185946 51.89949275 -0.31367749 58.26522347 -0.17602539 64.63110352 C10.38397461 64.63110352 20.94397461 64.63110352 31.82397461 64.63110352 C31.82397461 46.15110352 31.82397461 27.67110352 31.82397461 8.63110352 C21.26397461 8.63110352 10.70397461 8.63110352 -0.17602539 8.63110352 Z " fill="#FDFCFE" transform="translate(177.176025390625,26.368896484375)"/>
<path d="M0 0 C1.0333548 -0.00708481 2.06670959 -0.01416962 3.13137817 -0.02146912 C4.26961533 -0.0189917 5.40785248 -0.01651428 6.58058167 -0.01396179 C8.3733252 -0.02162819 8.3733252 -0.02162819 10.20228577 -0.02944946 C13.48536893 -0.04099152 16.76829604 -0.04341523 20.05139422 -0.04088616 C22.79005301 -0.03981816 25.52868837 -0.04469546 28.26734215 -0.04949158 C34.72740457 -0.06059598 41.18740885 -0.06101905 47.6474762 -0.05497742 C54.31629764 -0.04893653 60.98490816 -0.06124926 67.65369362 -0.08254749 C73.37519091 -0.1001498 79.09662099 -0.106167 84.81814438 -0.10290974 C88.23714272 -0.10109444 91.65599064 -0.10375738 95.07496452 -0.11762428 C98.88689981 -0.12990878 102.69834225 -0.12324466 106.51026917 -0.11161804 C107.64648209 -0.11926178 108.78269501 -0.12690552 109.95333862 -0.13478088 C110.98951324 -0.12776657 112.02568787 -0.12075226 113.09326172 -0.11352539 C113.994943 -0.11369313 114.89662428 -0.11386087 115.82562923 -0.1140337 C118.53696489 0.33071221 119.41637363 1.15271315 121.11012268 3.26069641 C120.45012268 4.91069641 119.79012268 6.56069641 119.11012268 8.26069641 C102.82941965 8.28402543 86.54872202 8.3016756 70.26800632 8.31250858 C62.70910649 8.31767153 55.15021703 8.32471421 47.59132385 8.33613586 C41.00532602 8.34608273 34.4193357 8.35254984 27.83333057 8.35478491 C24.34399197 8.35609201 20.85467484 8.35917783 17.36534309 8.36642647 C13.47631036 8.37444039 9.5872989 8.37468755 5.69825745 8.3742218 C4.53301041 8.37781708 3.36776337 8.38141235 2.16720581 8.38511658 C0.58748993 8.38305458 0.58748993 8.38305458 -1.0241394 8.38095093 C-2.40544619 8.38233362 -2.40544619 8.38233362 -3.81465816 8.38374424 C-5.88987732 8.26069641 -5.88987732 8.26069641 -6.88987732 7.26069641 C-7.07737732 4.82319641 -7.07737732 4.82319641 -6.88987732 2.26069641 C-4.35955404 -0.26962687 -3.50435414 0.00798175 0 0 Z " fill="#FEFDFE" transform="translate(96.88987731933594,109.73930358886719)"/>
<path d="M0 0 C1.78688988 -0.00945648 1.78688988 -0.00945648 3.60987854 -0.019104 C4.89224899 -0.01505554 6.17461945 -0.01100708 7.49584961 -0.00683594 C8.81483749 -0.00874939 10.13382538 -0.01066284 11.49278259 -0.01263428 C14.28104346 -0.01557908 17.06917596 -0.01130805 19.85742188 -0.00195312 C23.43087233 0.00945226 27.0040227 0.00287122 30.5774622 -0.00909805 C33.98778209 -0.01806153 37.39802119 -0.01178688 40.80834961 -0.00683594 C42.09274429 -0.0108844 43.37713898 -0.01493286 44.70045471 -0.019104 C45.88856247 -0.01279968 47.07667023 -0.00649536 48.30078125 0 C49.8715316 0.00238678 49.8715316 0.00238678 51.47401428 0.00482178 C54.08569336 0.25878906 54.08569336 0.25878906 57.08569336 2.25878906 C57.39819336 4.75878906 57.39819336 4.75878906 57.08569336 7.25878906 C54.3666408 9.97784162 52.91152321 9.51211827 49.10717773 9.51757812 C47.85247681 9.52388245 46.59777588 9.53018677 45.30505371 9.53668213 C43.92984884 9.53310245 42.55464524 9.52900051 41.17944336 9.52441406 C39.77461683 9.52576079 38.36979075 9.52770139 36.96496582 9.5302124 C34.01932339 9.53316332 31.07380218 9.52886715 28.12817383 9.51953125 C24.34830833 9.50813661 20.56872684 9.51469627 16.78887177 9.52667618 C13.88757173 9.53389571 10.98633927 9.53160645 8.08503723 9.52642059 C6.69114651 9.52508435 5.2972497 9.52673094 3.90336609 9.5313797 C1.95698154 9.53644617 0.01057555 9.52735776 -1.93579102 9.51757812 C-3.04450562 9.51598694 -4.15322021 9.51439575 -5.29553223 9.51275635 C-7.91430664 9.25878906 -7.91430664 9.25878906 -9.91430664 7.25878906 C-10.03930664 4.63378906 -10.03930664 4.63378906 -9.91430664 2.25878906 C-6.52977497 0.21641947 -3.92226704 0.00595542 0 0 Z " fill="#FEFDFF" transform="translate(99.914306640625,131.7412109375)"/>
<path d="M0 0 C1.27794937 -0.00315216 2.55589874 -0.00630432 3.87257385 -0.009552 C5.27304112 -0.00776236 6.67350808 -0.00571144 8.07397461 -0.00341797 C9.5036165 -0.00409126 10.93325828 -0.00506149 12.36289978 -0.00631714 C15.35978281 -0.00779246 18.35663605 -0.00564453 21.35351562 -0.00097656 C25.20290778 0.00472579 29.0522303 0.0014375 32.90161991 -0.00454903 C35.85347523 -0.0081547 38.80531391 -0.00701612 41.75716972 -0.00442123 C43.17700649 -0.00375225 44.59684474 -0.0045794 46.01667976 -0.00690079 C47.99679665 -0.00942793 49.97691881 -0.00489618 51.95703125 0 C53.08573135 0.00079559 54.21443146 0.00159119 55.37733459 0.00241089 C57.91381836 0.12939453 57.91381836 0.12939453 58.91381836 1.12939453 C58.95462619 3.12897817 58.95636192 5.12984707 58.91381836 7.12939453 C52.07896889 8.89915191 45.85961502 9.4115918 38.81616211 9.35986328 C37.78245987 9.35940506 36.74875763 9.35894684 35.68373108 9.35847473 C33.51131025 9.35547037 31.33889123 9.34763902 29.16650391 9.33520508 C25.85758763 9.31692916 22.5489518 9.31469592 19.23999023 9.31494141 C17.11954513 9.31002571 14.9991019 9.30419717 12.87866211 9.29736328 C11.40803566 9.29569405 11.40803566 9.29569405 9.90769958 9.29399109 C-5.02386882 9.19170735 -5.02386882 9.19170735 -8.08618164 6.12939453 C-8.21118164 3.50439453 -8.21118164 3.50439453 -8.08618164 1.12939453 C-5.32355594 -0.25191832 -3.09154762 0.00217762 0 0 Z " fill="#FAF9FC" transform="translate(98.086181640625,177.87060546875)"/>
<path d="M0 0 C1.63642456 0.00213753 1.63642456 0.00213753 3.3059082 0.00431824 C4.54058838 0.00124161 5.77526855 -0.00183502 7.04736328 -0.00500488 C8.40047389 0.00189309 9.75358266 0.00916008 11.10668945 0.01676941 C12.48909462 0.01796125 13.8715006 0.01841436 15.25390625 0.01815796 C18.15247663 0.01972315 21.05092356 0.02801533 23.94946289 0.04142761 C27.66872991 0.05841753 31.38786119 0.06224196 35.10716248 0.06148243 C37.96213075 0.0617541 40.81706922 0.06723483 43.67202759 0.07448387 C45.04358698 0.07767063 46.41514975 0.07963796 47.78671265 0.08037758 C49.70197764 0.08254103 51.61723006 0.09207804 53.5324707 0.10197449 C55.16889526 0.10769218 55.16889526 0.10769218 56.83837891 0.11352539 C59.41918945 0.24723816 59.41918945 0.24723816 61.41918945 1.24723816 C61.66918945 3.55973816 61.66918945 3.55973816 61.41918945 6.24723816 C58.3274599 9.31333795 55.96778382 9.62221109 51.7043457 9.61955261 C50.55635498 9.6257814 49.40836426 9.63201019 48.22558594 9.63842773 C46.9901001 9.62921799 45.75461426 9.62000824 44.48168945 9.61051941 C43.20946533 9.61101791 41.93724121 9.61151642 40.62646484 9.61203003 C37.9362968 9.60968923 35.24691597 9.60153915 32.55688477 9.5834198 C29.11354468 9.56073278 25.67064341 9.56018984 22.22724915 9.56693745 C18.93702965 9.57108751 15.64688769 9.55910151 12.35668945 9.54801941 C11.12120361 9.54893082 9.88571777 9.54984222 8.61279297 9.55078125 C7.46480225 9.54124924 6.31681152 9.53171722 5.1340332 9.52189636 C4.1246167 9.51728897 3.1152002 9.51268158 2.07519531 9.50793457 C-0.62158668 9.24323584 -2.27381497 8.62741995 -4.58081055 7.24723816 C-4.70581055 4.87223816 -4.70581055 4.87223816 -4.58081055 2.24723816 C-2.58081055 0.24723816 -2.58081055 0.24723816 0 0 Z " fill="#FEFDFE" transform="translate(94.580810546875,32.75276184082031)"/>
<path d="M0 0 C1.23460464 -0.00622879 2.46920929 -0.01245758 3.7412262 -0.01887512 C5.08912561 -0.01018797 6.43702108 -0.00087009 7.78491211 0.0090332 C9.16588846 0.00955184 10.54686556 0.00903401 11.92784119 0.00752258 C14.82049597 0.00761227 17.71287183 0.01803493 20.60546875 0.03613281 C24.31694499 0.05884138 28.02801443 0.05935997 31.73954105 0.05261517 C34.59024179 0.04927742 37.44084942 0.05590119 40.29153252 0.0657444 C41.66029816 0.06959848 43.02907416 0.07074376 44.39784431 0.06915855 C46.30822187 0.0687886 48.21858588 0.08286949 50.12890625 0.09765625 C51.21683975 0.10226364 52.30477325 0.10687103 53.42567444 0.11161804 C55.99975586 0.37231445 55.99975586 0.37231445 57.99975586 2.37231445 C58.18725586 4.93481445 58.18725586 4.93481445 57.99975586 7.37231445 C56.99975586 8.37231445 56.99975586 8.37231445 54.44981384 8.49256897 C52.74771507 8.48923805 52.74771507 8.48923805 51.01123047 8.48583984 C49.72997787 8.48576431 48.44872528 8.48568878 47.12864685 8.48561096 C45.71979738 8.48050355 44.3109483 8.47528754 42.90209961 8.4699707 C41.46863352 8.46810647 40.03516679 8.46668259 38.60169983 8.46568298 C34.82215629 8.46185818 31.04265096 8.45202822 27.26312256 8.440979 C23.40906288 8.43076408 19.55499704 8.42618519 15.70092773 8.42114258 C8.13385299 8.41040591 0.56680977 8.39332994 -7.00024414 8.37231445 C-7.66024414 6.72231445 -8.32024414 5.07231445 -9.00024414 3.37231445 C-6.37480196 -0.07401687 -4.19499537 -0.00242525 0 0 Z " fill="#FEFDFF" transform="translate(98.000244140625,84.627685546875)"/>
<path d="M0 0 C2.89604935 0.00535854 5.79194365 0.00003022 8.68798828 -0.00634766 C31.88769474 -0.0218128 31.88769474 -0.0218128 35.40283203 1.13037109 C36.67041016 3.17675781 36.67041016 3.17675781 37.40283203 5.13037109 C36.74283203 6.12037109 36.08283203 7.11037109 35.40283203 8.13037109 C32.69467163 8.49113464 32.69467163 8.49113464 29.20898438 8.47094727 C27.90778656 8.47072067 26.60658875 8.47049408 25.26596069 8.47026062 C23.84022684 8.45493946 22.41449647 8.43929146 20.98876953 8.42333984 C19.53431637 8.41774553 18.07985756 8.41347465 16.62539673 8.41047668 C12.79476348 8.39901483 8.96447075 8.36953657 5.13397217 8.33636475 C1.22624315 8.30569247 -2.68154081 8.29197746 -6.58935547 8.27685547 C-14.25878165 8.24466777 -21.92792712 8.19345572 -29.59716797 8.13037109 C-29.97850096 6.13896549 -30.31042379 4.13758032 -30.59716797 2.13037109 C-25.59768688 -2.86911 -6.88626743 -0.01516542 0 0 Z " fill="#FDFCFE" transform="translate(180.59716796875,154.86962890625)"/>
<path d="M0 0 C2.66346741 -0.36749268 2.66346741 -0.36749268 6.08618164 -0.35644531 C7.36413101 -0.35944641 8.64208038 -0.36244751 9.95875549 -0.36553955 C11.35922649 -0.35353473 12.75969346 -0.34105179 14.16015625 -0.328125 C15.58979596 -0.32506833 17.01943864 -0.32319151 18.44908142 -0.32244873 C21.44606918 -0.31784305 24.44278862 -0.30340624 27.43969727 -0.28125 C31.28910439 -0.25294179 35.13830023 -0.24203635 38.98780155 -0.2375679 C41.93967317 -0.23341949 44.89150169 -0.22360731 47.84335136 -0.21169281 C49.26318451 -0.20597974 50.68302184 -0.20122449 52.1028614 -0.19742584 C54.0830037 -0.19058246 56.06311501 -0.17605587 58.04321289 -0.16113281 C59.17191299 -0.15430481 60.3006131 -0.14747681 61.46351624 -0.14044189 C64 0 64 0 65 1 C65.125 3.5 65.125 3.5 65 6 C60.92821443 10.07178557 47.79882641 8.12550799 42.09307861 8.13787842 C40.49401679 8.13709997 38.89495493 8.13457403 37.29589844 8.13037109 C34.90032484 8.12505619 32.50494258 8.13032138 30.109375 8.13671875 C19.70621618 8.14072582 9.37701128 7.72806584 -1 7 C-1.625 5.1875 -1.625 5.1875 -2 3 C-1.34 2.01 -0.68 1.02 0 0 Z " fill="#FBFAFD" transform="translate(91,68)"/>
<path d="M0 0 C1.91703735 -0.00472824 1.91703735 -0.00472824 3.87280273 -0.009552 C5.27848342 -0.00776222 6.6841638 -0.00571127 8.08984375 -0.00341797 C9.52091488 -0.00409105 10.9519859 -0.00506111 12.38305664 -0.00631714 C15.38591599 -0.00779391 18.38874565 -0.00564023 21.39160156 -0.00097656 C25.24886946 0.00472073 29.10606779 0.00144161 32.96333313 -0.00454903 C35.91947966 -0.00815521 38.87560958 -0.00701579 41.83175659 -0.00442123 C43.25438444 -0.00375212 44.67701378 -0.00457984 46.09963989 -0.00690079 C48.08465549 -0.0094282 50.06967634 -0.00489589 52.0546875 0 C53.75226196 0.00119339 53.75226196 0.00119339 55.48413086 0.00241089 C58.02734375 0.12939453 58.02734375 0.12939453 59.02734375 1.12939453 C59.15234375 3.62939453 59.15234375 3.62939453 59.02734375 6.12939453 C57.22471853 7.93201975 54.48357365 7.25708156 52.0546875 7.25878906 C50.7766626 7.26194122 49.4986377 7.26509338 48.18188477 7.26834106 C46.77620408 7.26655128 45.3705237 7.26450033 43.96484375 7.26220703 C42.53377262 7.26288011 41.1027016 7.26385018 39.67163086 7.2651062 C36.66877151 7.26658297 33.66594185 7.2644293 30.66308594 7.25976562 C26.80581804 7.25406834 22.94861971 7.25734745 19.09135437 7.26333809 C16.13520784 7.26694427 13.17907792 7.26580486 10.22293091 7.2632103 C8.80030306 7.26254119 7.37767372 7.2633689 5.95504761 7.26568985 C3.97003201 7.26821727 1.98501116 7.26368496 0 7.25878906 C-1.69757446 7.25759567 -1.69757446 7.25759567 -3.42944336 7.25637817 C-5.97265625 7.12939453 -5.97265625 7.12939453 -6.97265625 6.12939453 C-7.09765625 3.62939453 -7.09765625 3.62939453 -6.97265625 1.12939453 C-5.17003103 -0.67323069 -2.42888615 0.0017075 0 0 Z " fill="#F9F8FC" transform="translate(96.97265625,50.87060546875)"/>
<path d="M0 0 C0.83096191 -0.00630432 1.66192383 -0.01260864 2.51806641 -0.019104 C3.85877197 -0.01303131 3.85877197 -0.01303131 5.2265625 -0.00683594 C6.14743652 -0.00874939 7.06831055 -0.01066284 8.01708984 -0.01263428 C9.96386997 -0.01399514 11.91065919 -0.01030557 13.85742188 -0.00195312 C16.84005078 0.00874776 19.82207736 -0.00185176 22.8046875 -0.01464844 C24.69531383 -0.01332683 26.58593979 -0.0107644 28.4765625 -0.00683594 C29.81726807 -0.01290863 29.81726807 -0.01290863 31.18505859 -0.019104 C32.43150146 -0.00964752 32.43150146 -0.00964752 33.703125 0 C34.79874756 0.00238678 34.79874756 0.00238678 35.91650391 0.00482178 C37.8515625 0.25878906 37.8515625 0.25878906 40.8515625 2.25878906 C41.1015625 5.32128906 41.1015625 5.32128906 40.8515625 8.25878906 C39.2818636 9.82848797 37.72716072 9.39378008 35.54711914 9.40405273 C34.17548363 9.41362251 34.17548363 9.41362251 32.77613831 9.42338562 C31.28400063 9.42505486 31.28400063 9.42505486 29.76171875 9.42675781 C28.74685898 9.43008621 27.73199921 9.43341461 26.68638611 9.43684387 C24.5351507 9.44191756 22.3839074 9.44425206 20.23266602 9.4440918 C16.93167214 9.4462774 13.63101275 9.46442613 10.33007812 9.48339844 C8.24479282 9.48633237 6.15950591 9.48831717 4.07421875 9.48925781 C3.08148453 9.49644333 2.08875031 9.50362885 1.06593323 9.5110321 C0.14835739 9.50795547 -0.76921844 9.50487885 -1.71459961 9.50170898 C-2.52432724 9.503134 -3.33405487 9.50455902 -4.1683197 9.50602722 C-6.1484375 9.25878906 -6.1484375 9.25878906 -8.1484375 7.25878906 C-7.9609375 4.75878906 -7.9609375 4.75878906 -7.1484375 2.25878906 C-4.08113309 0.21391946 -3.45651533 0.00752991 0 0 Z " fill="#FEFDFE" transform="translate(176.1484375,131.7412109375)"/>
<path d="M0 0 C1.38120529 0.0001133 1.38120529 0.0001133 2.79031372 0.00022888 C4.28412064 0.00797081 4.28412064 0.00797081 5.80810547 0.01586914 C7.33538773 0.01799156 7.33538773 0.01799156 8.89352417 0.02015686 C12.15414332 0.02576639 15.41469448 0.03832051 18.67529297 0.05102539 C20.88232323 0.05603916 23.08935456 0.06060228 25.29638672 0.06469727 C30.71437877 0.07573891 36.13233101 0.09248634 41.55029297 0.11352539 C42.21029297 1.43352539 42.87029297 2.75352539 43.55029297 4.11352539 C40.92529297 7.98852539 40.92529297 7.98852539 37.55029297 9.11352539 C34.90074426 9.2224285 32.27832394 9.27756237 29.62841797 9.28149414 C28.85020691 9.28482254 28.07199585 9.28815094 27.27020264 9.2915802 C25.62268667 9.29664171 23.97516046 9.29898876 22.32763672 9.29882812 C19.82355516 9.30100517 17.31992105 9.31914262 14.81591797 9.33813477 C13.2117528 9.34107085 11.60758555 9.34305421 10.00341797 9.34399414 C8.89054413 9.35477242 8.89054413 9.35477242 7.75518799 9.36576843 C-3.2450954 9.31813702 -3.2450954 9.31813702 -6.44970703 6.11352539 C-6.49034535 4.44735424 -6.49242803 2.77964444 -6.44970703 1.11352539 C-4.07579867 -0.07342879 -2.64725752 -0.00723294 0 0 Z " fill="#FBF9FC" transform="translate(174.44970703125,177.886474609375)"/>
<path d="M0 0 C0.625 2.375 0.625 2.375 1 5 C-1 7 -1 7 -2.98684692 7.24050903 C-4.20596268 7.2338472 -4.20596268 7.2338472 -5.44970703 7.22705078 C-6.37051056 7.22689972 -7.29131409 7.22674866 -8.24002075 7.22659302 C-9.23589203 7.21627045 -10.23176331 7.20594788 -11.2578125 7.1953125 C-12.27600067 7.1924826 -13.29418884 7.18965271 -14.3432312 7.18673706 C-17.603939 7.1755177 -20.86437484 7.15040996 -24.125 7.125 C-26.33202729 7.11497247 -28.53905888 7.10584623 -30.74609375 7.09765625 C-36.16415572 7.07557268 -41.58205843 7.04207795 -47 7 C-48.0625 5.1875 -48.0625 5.1875 -49 3 C-48.67 2.01 -48.34 1.02 -48 0 C-32.06726066 -2.023205 -15.98129115 -0.88484251 0 0 Z " fill="#FDFCFE" transform="translate(138,156)"/>
</svg>
