<?xml version="1.0" encoding="UTF-8"?>
<svg version="1.1" xmlns="http://www.w3.org/2000/svg" width="104" height="96">
<path d="M0 0 C0.75838669 -0.00807175 1.51677338 -0.01614349 2.29814148 -0.02445984 C3.90275805 -0.03828057 5.50740377 -0.04901171 7.11206055 -0.05688477 C8.74821623 -0.06840356 10.38433437 -0.08885404 12.02026367 -0.1184082 C14.38876794 -0.16119378 16.7561567 -0.17726819 19.125 -0.1875 C19.8502034 -0.20500809 20.5754068 -0.22251617 21.32258606 -0.24055481 C26.45873282 -0.2187964 29.3004226 1.02617161 33.26171875 4.23828125 C37.44653862 8.98861732 38.41433327 11.43098683 38.44921875 17.73828125 C38.46339844 18.90359375 38.47757813 20.06890625 38.4921875 21.26953125 C38.26171875 24.23828125 38.26171875 24.23828125 36.26171875 26.23828125 C32.72600446 25.70256696 32.72600446 25.70256696 31.26171875 24.23828125 C31.05692404 21.52588912 30.94245141 18.8155975 30.8359375 16.09765625 C30.09396461 12.40293412 28.96690891 10.86278029 26.26171875 8.23828125 C23.55707824 7.75172399 21.48899518 7.5803439 18.79296875 7.64453125 C17.71698425 7.64447083 17.71698425 7.64447083 16.6192627 7.64440918 C15.10627456 7.64975834 13.59328657 7.66731592 12.08056641 7.69628906 C9.76899013 7.73814957 7.46032896 7.7373567 5.1484375 7.73046875 C3.67576107 7.74096212 2.20309962 7.75390104 0.73046875 7.76953125 C-0.30249329 7.76983337 -0.30249329 7.76983337 -1.35632324 7.7701416 C-4.38301288 7.84452363 -6.4921399 8.10244237 -9.16210938 9.57592773 C-12.14277909 12.71957397 -11.68173761 17.16678569 -12.05078125 21.3046875 C-12.73828125 24.23828125 -12.73828125 24.23828125 -14.80078125 25.640625 C-15.75984375 25.93646484 -15.75984375 25.93646484 -16.73828125 26.23828125 C-18.64203757 24.64174487 -19.63877887 23.7328666 -20.13671875 21.2578125 C-20.07239043 15.20022933 -19.5433152 9.3268842 -15.30859375 4.6640625 C-10.39578093 0.39895883 -6.2340004 0.0629723 0 0 Z " fill="#F5F5F5" transform="translate(39.73828125,51.76171875)"/>
<path d="M0 0 C3.77828549 1.63476985 6.19810455 4.12050177 8.9375 7.125 C10.93425119 12.52797382 10.9768763 18.50353834 8.875 23.875 C4.61397208 28.70416498 0.88495048 31.75958746 -5.75 32.3125 C-10.52252495 32.24231581 -13.12437123 30.75765893 -17 28 C-21.1329674 23.5407457 -22.32304156 20.17556913 -22.2109375 14.0546875 C-21.72144252 9.28664383 -19.46819043 6.20887323 -15.9375 3.1875 C-10.7649128 -0.66442664 -6.34791011 -0.77926069 0 0 Z M-15 13 C-15.73490789 17.00116517 -15.38814018 18.41778974 -13.125 21.8125 C-10.60742274 24.40412365 -9.77101672 24.93146518 -6.1875 25.25 C-2.60845281 24.96929042 -0.85749983 24.12271416 2 22 C3.61588379 18.76823243 3.57451407 15.49384717 3 12 C1.00647547 9.00971321 -0.40255495 7.42190585 -3.9375 6.48828125 C-9.66030186 6.00054245 -12.04474818 8.01301255 -15 13 Z " fill="#F5F5F5" transform="translate(55,14)"/>
</svg>
