<?xml version="1.0" encoding="UTF-8"?>
<svg version="1.1" xmlns="http://www.w3.org/2000/svg" width="297" height="306">
<path d="M0 0 C2.0525459 0.03479728 4.10088417 0.02048668 6.15356445 0.0012207 C15.90686343 0.07382591 15.90686343 0.07382591 18.47412109 2.03100586 C20.21815556 6.03052631 20.01369172 9.90094424 19.99926758 14.21801758 C20.01010376 15.15492935 20.02093994 16.09184113 20.03210449 17.05714417 C20.06636229 20.04964107 20.08195767 23.04175661 20.09301758 26.03442383 C20.10759158 29.97098832 20.14128719 33.90670226 20.18676758 37.84301758 C20.18374634 38.74523544 20.1807251 39.64745331 20.1776123 40.57701111 C20.2132389 47.14724741 20.2132389 47.14724741 23.59301758 52.59692383 C30.20203303 55.66180711 37.73793038 54.88700945 44.88208008 54.86254883 C46.27257352 54.86389809 47.66306651 54.86584079 49.05355835 54.86834717 C51.95673142 54.87128421 54.85978083 54.86704546 57.76293945 54.85766602 C61.47622792 54.84625086 65.18922788 54.85285282 68.90250587 54.86481094 C71.7696041 54.87204987 74.63663428 54.86973267 77.50373459 54.86455536 C78.87281707 54.86322559 80.24190583 54.86484293 81.61098099 54.86951447 C83.52507655 54.87461527 85.43919393 54.86545739 87.35327148 54.85571289 C88.44024323 54.8541217 89.52721497 54.85253052 90.64712524 54.85089111 C94.55215713 54.51423579 97.44831914 53.63096652 100.37353516 50.98852539 C102.14189195 47.52049272 102.0729912 44.14081451 102.10473633 40.33129883 C102.12268753 39.537901 102.14063873 38.74450317 102.15913391 37.92706299 C102.21318684 35.40040351 102.2471157 32.87393238 102.28051758 30.34692383 C102.31369518 28.63075182 102.34818525 26.91460464 102.3840332 25.19848633 C102.46891013 20.99810151 102.53574479 16.79777206 102.59301758 12.59692383 C98.63301758 12.59692383 94.67301758 12.59692383 90.59301758 12.59692383 C90.55543335 13.93654175 90.55543335 13.93654175 90.51708984 15.30322266 C90.42191572 18.61877837 90.32268475 21.93416112 90.22070312 25.24951172 C90.17740965 26.68403386 90.13573059 28.11860567 90.09570312 29.55322266 C90.03786491 31.61611903 89.97421005 33.67876666 89.90942383 35.74145508 C89.87276611 36.98258057 89.8361084 38.22370605 89.79833984 39.50244141 C89.59301758 42.59692383 89.59301758 42.59692383 88.59301758 45.59692383 C84.01360496 47.68797982 79.60952274 47.90316608 74.65551758 47.84692383 C73.97811523 47.8546582 73.30071289 47.86239258 72.6027832 47.87036133 C67.95304485 47.85252916 63.87192553 47.46057835 59.59301758 45.59692383 C57.72530808 41.36653291 57.35401037 37.69268101 57.39770508 33.10473633 C57.40415039 31.9059082 57.4105957 30.70708008 57.41723633 29.47192383 C57.44237305 27.61567383 57.44237305 27.61567383 57.46801758 25.72192383 C57.47704102 24.4612207 57.48606445 23.20051758 57.49536133 21.90161133 C57.51885949 18.79985343 57.55171423 15.69848731 57.59301758 12.59692383 C56.99352295 12.60739746 56.39402832 12.61787109 55.77636719 12.62866211 C53.02779428 12.6705522 50.27928884 12.69635386 47.53051758 12.72192383 C46.58756836 12.73868164 45.64461914 12.75543945 44.6730957 12.77270508 C39.23567156 12.81059654 34.71448999 12.47317559 29.59301758 10.59692383 C28.59301758 9.59692383 28.59301758 9.59692383 28.34301758 6.15942383 C28.42551758 4.98379883 28.50801758 3.80817383 28.59301758 2.59692383 C32.28733558 0.13404516 35.158104 0.27384303 39.43676758 0.26098633 C40.58502014 0.25100113 40.58502014 0.25100113 41.75646973 0.24081421 C43.37367349 0.2306969 44.99091892 0.22599691 46.6081543 0.22631836 C49.08427392 0.22193929 51.55861892 0.18559754 54.03442383 0.14770508 C55.60603231 0.14183788 57.17764927 0.13786784 58.74926758 0.13598633 C59.86029846 0.11442978 59.86029846 0.11442978 60.99377441 0.09243774 C64.1080497 0.12017729 66.09144748 0.19489773 68.56494141 2.17749023 C69.97101984 5.48649933 69.93015686 8.17626259 69.88598633 11.76879883 C69.88174149 12.45121643 69.87749664 13.13363403 69.87312317 13.83673096 C69.8563873 16.00720387 69.81874716 18.17673362 69.78051758 20.34692383 C69.76546404 21.82217079 69.7517768 23.29743238 69.73950195 24.77270508 C69.70650134 28.38108227 69.65475525 31.98891093 69.59301758 35.59692383 C72.23301758 35.59692383 74.87301758 35.59692383 77.59301758 35.59692383 C77.58254395 34.74461182 77.57207031 33.8922998 77.5612793 33.01416016 C77.52709103 29.83659877 77.50206684 26.6591315 77.4831543 23.48144531 C77.47312832 22.109018 77.45950402 20.73661188 77.44213867 19.36425781 C77.41774131 17.38591856 77.40757273 15.40742016 77.39770508 13.42895508 C77.38723145 12.24019775 77.37675781 11.05144043 77.3659668 9.82666016 C77.5914649 6.61901022 78.11269106 4.43773472 79.59301758 1.59692383 C83.90014578 -0.55664027 89.61425172 0.32886986 94.39648438 0.30175781 C96.51928865 0.28451504 98.64054665 0.24062144 100.76293945 0.1965332 C102.11123529 0.18640844 103.45954436 0.17789166 104.80786133 0.17114258 C106.65045532 0.1492688 106.65045532 0.1492688 108.53027344 0.12695312 C111.59301758 0.59692383 111.59301758 0.59692383 113.25819397 2.33045959 C114.77685132 4.90906439 114.98243205 6.36008392 115.01293945 9.33032227 C115.02885132 10.2651947 115.04476318 11.20006714 115.06115723 12.16326904 C115.06135864 13.16746887 115.06156006 14.1716687 115.06176758 15.20629883 C115.0693811 16.24707581 115.07699463 17.28785278 115.08483887 18.36016846 C115.09564096 20.56243493 115.09849254 22.76475264 115.09399414 24.96704102 C115.09302504 28.32111256 115.1345804 31.67287193 115.17895508 35.02661133 C115.18416476 37.16983575 115.18685023 39.31306808 115.18676758 41.45629883 C115.20316284 42.45240173 115.21955811 43.44850464 115.2364502 44.47479248 C115.15461145 52.80764188 112.51440453 57.47171918 106.90551758 63.47192383 C98.7644971 68.69446527 88.60644604 67.89191788 79.25708008 67.86254883 C77.88764375 67.86390041 76.5182079 67.86584502 75.14877319 67.86834717 C72.29290146 67.87127728 69.43715577 67.86707088 66.58129883 67.85766602 C62.95510074 67.84629449 59.32919961 67.85282979 55.70301247 67.86481094 C52.87852827 67.87210576 50.05411217 67.86970668 47.2296257 67.86455536 C45.25355584 67.86260698 43.27748313 67.86858996 41.30142212 67.87481689 C19.48481109 67.76282583 19.48481109 67.76282583 12.92504883 61.17114258 C7.48665602 54.74395108 7.43974289 48.28796719 7.49536133 40.13598633 C7.49677628 39.3454184 7.49819122 38.55485046 7.49964905 37.74032593 C7.50521254 35.23415216 7.51775814 32.72807024 7.53051758 30.22192383 C7.5355373 28.51489388 7.54009938 26.80786251 7.54418945 25.10083008 C7.55516999 20.93282635 7.57240919 16.76489062 7.59301758 12.59692383 C7.0266861 12.61333923 6.46035461 12.62975464 5.87686157 12.64666748 C5.12013153 12.66860168 4.36340149 12.69053589 3.58374023 12.71313477 C2.40029022 12.74836243 2.40029022 12.74836243 1.19293213 12.78430176 C-0.44251583 12.8303328 -2.07827603 12.86559064 -3.71411133 12.89477539 C-8.98755797 13.12028853 -12.37850072 13.89507578 -16.40698242 17.59692383 C-20.29331545 24.21261763 -19.83704544 30.88361987 -19.81103516 38.39160156 C-19.816744 39.78850855 -19.82371025 41.18541087 -19.83183289 42.58230591 C-19.84972272 46.36130135 -19.84860386 50.14006407 -19.8428905 53.91908908 C-19.8397926 57.08004066 -19.84589777 60.24094793 -19.85192925 63.4018932 C-19.86595913 70.86187931 -19.86442601 78.32175087 -19.85302734 85.78173828 C-19.84154723 93.46456043 -19.85562331 101.14703345 -19.88242382 108.82980961 C-19.90461148 115.4389632 -19.91121132 122.04800745 -19.90534741 128.65719563 C-19.90198398 132.59888992 -19.9043518 136.54036045 -19.92159843 140.48202324 C-19.93711466 144.18976388 -19.93306091 147.89698901 -19.91429329 151.60470963 C-19.90887628 153.60459963 -19.92308581 155.60451304 -19.93798828 157.60435486 C-19.87977455 164.73212378 -19.33661998 169.57396361 -15.40698242 175.59692383 C-10.63837391 179.38735623 -5.59254541 179.72064323 0.33477783 179.7306366 C2.05468681 179.73703407 2.05468681 179.73703407 3.80934143 179.74356079 C5.05827682 179.7431076 6.30721222 179.74265442 7.59399414 179.7421875 C8.92986647 179.74518152 10.26573794 179.74858462 11.60160828 179.75236511 C15.22370644 179.76118607 18.84578097 179.76354247 22.46788883 179.7641809 C24.73389238 179.76489266 26.99988996 179.7670294 29.26589203 179.76967812 C37.18011353 179.77892631 45.0943182 179.78301379 53.00854492 179.78222656 C60.3708314 179.7816264 67.73304445 179.79216748 75.09531236 179.80797023 C81.42756437 179.82107481 87.75979248 179.82640921 94.09205794 179.82577115 C97.86887555 179.82551696 101.64562792 179.82832447 105.42243195 179.8389492 C108.97816792 179.84867904 112.53377697 179.84867614 116.08951759 179.84143257 C118.00454452 179.83989972 119.91957157 179.84819987 121.83457947 179.85687256 C133.26428525 180.15514765 133.26428525 180.15514765 143.03051758 175.28442383 C145.60128532 170.86270332 146.84182222 167.34883507 146.86044312 162.21461487 C146.86897308 161.14781494 146.87750305 160.08101501 146.8862915 158.98188782 C146.88538513 157.82174667 146.88447876 156.66160553 146.88354492 155.46630859 C146.89026215 154.23651276 146.89697937 153.00671692 146.90390015 151.73965454 C146.91962802 148.37387694 146.92625421 145.0083461 146.92753172 141.6425488 C146.92895527 139.53803979 146.93322868 137.43355649 146.93852615 135.32905388 C146.95701525 127.98237343 146.96519798 120.63576545 146.96362305 113.2890625 C146.96242123 106.44807348 146.98353412 99.60739975 147.01511037 92.76649052 C147.041283 86.88607477 147.05198997 81.00576196 147.05071223 75.12528843 C147.05020297 71.61619942 147.05586573 68.10739088 147.07706833 64.59836006 C147.10007335 60.68442642 147.09092371 56.77092381 147.07885742 52.85693359 C147.09009644 51.69881668 147.10133545 50.54069977 147.11291504 49.3474884 C147.05098086 41.45069503 145.87167192 38.1340741 140.51831055 32.35864258 C139.43767334 31.3319043 139.43767334 31.3319043 138.33520508 30.28442383 C137.14991211 29.13586914 137.14991211 29.13586914 135.94067383 27.96411133 C134.2881553 26.38207937 132.63187773 24.80396491 130.97192383 23.22973633 C123.30406789 15.77522499 123.30406789 15.77522499 122.59301758 10.59692383 C123.96801758 7.72192383 123.96801758 7.72192383 125.59301758 5.59692383 C130.7830836 5.48409631 133.28972798 6.833967 137.15551758 10.28442383 C138.46985879 11.54416933 139.78279527 12.80563968 141.07446289 14.08862305 C142.78235166 15.78497945 144.51192416 17.45780431 146.24145508 19.13208008 C147.50590036 20.36890674 148.76892811 21.6071843 150.03051758 22.84692383 C150.63387939 23.43691162 151.23724121 24.02689941 151.85888672 24.63476562 C152.42986084 25.20493408 153.00083496 25.77510254 153.58911133 26.36254883 C154.09627686 26.86560547 154.60344238 27.36866211 155.12597656 27.88696289 C158.60348527 31.94029472 159.96781679 35.06716228 159.98069763 40.42134094 C159.99060226 41.5862204 160.0005069 42.75109985 160.01071167 43.95127869 C160.00621002 45.2204866 160.00170837 46.48969452 159.99707031 47.79736328 C160.00277591 49.15456707 160.00974091 50.51176607 160.01786804 51.86895752 C160.03579746 55.54890261 160.03463111 59.2286092 160.02892566 62.90858483 C160.02583232 65.98493543 160.03192813 69.06124031 160.0379644 72.13758439 C160.05200839 79.39905335 160.05045049 86.66040467 160.0390625 93.921875 C160.02759152 101.40130182 160.04163984 108.88036964 160.06845897 116.35974914 C160.09065072 122.79052063 160.09724525 129.22117973 160.09138256 135.65198678 C160.08801882 139.4886374 160.09038849 143.32505814 160.10763359 147.16167641 C160.12315545 150.77254372 160.11908995 154.38288184 160.10032845 157.99372864 C160.09491327 159.94115534 160.10911832 161.88860609 160.12402344 163.83598328 C160.0528662 172.32595622 158.90183695 177.64472291 153.34301758 184.28442383 C152.43551758 185.04754883 151.52801758 185.81067383 150.59301758 186.59692383 C150.08641602 187.05196289 149.57981445 187.50700195 149.05786133 187.97583008 C137.03546829 197.25024756 112.43455358 192.76154265 98.00667119 192.7641809 C95.79806413 192.7648983 93.58946303 192.7670452 91.38085747 192.76967812 C83.6546172 192.77887694 75.928394 192.78301896 68.20214844 192.78222656 C61.02992436 192.78162373 53.85777498 192.79222965 46.68556982 192.80797023 C40.4932222 192.82107057 34.30089898 192.82640958 28.10853761 192.82577115 C24.4246626 192.82551737 20.74085452 192.82830337 17.05699348 192.8389492 C12.95574973 192.85048376 8.85467353 192.84586815 4.75341797 192.83984375 C3.54856247 192.84546326 2.34370697 192.85108276 1.1023407 192.85687256 C-9.40092941 192.81771738 -17.44058136 191.85721207 -25.40698242 184.59692383 C-33.09608095 176.70001183 -32.84409483 167.54278605 -32.79516602 157.16967773 C-32.79923676 155.71675727 -32.80458146 154.26383991 -32.81109619 152.81092834 C-32.82471831 148.88309205 -32.81949175 144.95549341 -32.80995893 141.02765322 C-32.80233286 136.90436471 -32.80941637 132.78109576 -32.81411743 128.6578064 C-32.81956765 121.73285289 -32.81240395 114.80799553 -32.7980957 107.88305664 C-32.78178348 99.89640669 -32.78705022 91.90998669 -32.80357492 83.92334235 C-32.81722617 77.04832713 -32.81909133 70.17338082 -32.81125891 63.29835641 C-32.80660068 59.20016426 -32.80590602 55.10207988 -32.81586838 51.00389481 C-32.82458847 47.14764434 -32.81842503 43.29168769 -32.80118561 39.43546867 C-32.79724695 38.02706704 -32.79830942 36.61864032 -32.8049736 35.21024895 C-32.84844992 25.081607 -32.67132677 14.79997046 -25.23120117 7.11889648 C-17.54721631 0.70803438 -9.78237502 -0.18412485 0 0 Z " fill="#FDFDFD" transform="translate(77.406982421875,56.403076171875)"/>
<path d="M0 0 C1.00108292 -0.01036789 2.00216583 -0.02073578 3.03358459 -0.03141785 C6.32367638 -0.0583933 9.61242625 -0.04884552 12.90258789 -0.03637695 C15.20130279 -0.0422897 17.50001461 -0.04953803 19.79872131 -0.05805969 C24.60946737 -0.06992385 29.41975029 -0.06325881 34.23046875 -0.04394531 C40.38192213 -0.02106687 46.53199342 -0.04783678 52.68331051 -0.08900738 C57.42844454 -0.11463713 62.1732502 -0.11199114 66.91842842 -0.10111427 C69.18573829 -0.09963175 71.45307385 -0.10726918 73.72031975 -0.12436485 C76.89641913 -0.1444268 80.07010386 -0.12586679 83.24609375 -0.09765625 C84.17364471 -0.11137268 85.10119568 -0.12508911 86.05685425 -0.13922119 C92.96905014 -0.01710686 97.46593345 2.14477359 102.68774414 6.6628418 C106.60887939 11.16517647 107.81088407 15.39096447 107.83300781 21.2800293 C107.83938766 22.43132324 107.84576752 23.58261719 107.8523407 24.76879883 C107.85400993 26.6344751 107.85400993 26.6344751 107.85571289 28.5378418 C107.85904129 29.81385254 107.86236969 31.08986328 107.86579895 32.40454102 C107.8708655 35.10460902 107.87363945 37.80457637 107.87304688 40.50463867 C107.87294514 43.9648773 107.88661182 47.42491125 107.90381908 50.88510132 C107.91760583 54.18600723 107.91702751 57.48691098 107.91821289 60.7878418 C107.92539841 62.03162598 107.93258392 63.27541016 107.93998718 64.55688477 C107.93691055 65.70817871 107.93383392 66.85947266 107.93066406 68.0456543 C107.93208908 69.06030762 107.9335141 70.07496094 107.9349823 71.12036133 C107.68774414 73.6628418 107.68774414 73.6628418 105.68774414 76.6628418 C102.25024414 77.1003418 102.25024414 77.1003418 98.68774414 76.6628418 C96.54767725 74.53093577 95.76125211 73.165689 95.32266235 70.16542053 C95.3286293 68.76240944 95.3286293 68.76240944 95.3347168 67.33105469 C95.3310611 66.26637466 95.3274054 65.20169464 95.32363892 64.10475159 C95.33293427 62.95989792 95.34222961 61.81504425 95.35180664 60.63549805 C95.33929599 58.21036515 95.32625895 55.78523493 95.31274414 53.36010742 C95.30880982 49.53717667 95.31278554 45.7145075 95.32739258 41.89160156 C95.33595115 38.20166809 95.31429925 34.51283471 95.28930664 30.82299805 C95.30265045 29.68016861 95.31599426 28.53733917 95.32974243 27.35987854 C95.27795023 21.06489735 95.27795023 21.06489735 92.65014648 15.46533203 C86.93762984 11.98951941 79.72238439 12.51151693 73.1796875 12.50170898 C72.37046341 12.49674408 71.56123932 12.49177917 70.72749329 12.48666382 C68.07751589 12.47217826 65.4275982 12.4652656 62.77758789 12.4597168 C61.86692629 12.45688942 60.95626469 12.45406204 60.01800728 12.45114899 C55.20536133 12.43621703 50.39274493 12.42694786 45.58007812 12.42260742 C40.62156138 12.41711006 35.66331744 12.39303832 30.70488644 12.36463547 C26.87780467 12.34598559 23.05078861 12.34080239 19.22366524 12.33927155 C17.39569153 12.33625334 15.56771875 12.32825301 13.73978996 12.31508636 C11.18178448 12.29796511 8.62444633 12.29991999 6.06640625 12.30639648 C5.3186795 12.2971817 4.57095276 12.28796692 3.80056763 12.2784729 C-1.37169779 12.31933993 -4.85535524 13.17994671 -9.31225586 15.6628418 C-11.57696416 18.61790248 -11.57108513 21.37512861 -11.59936523 25.02636719 C-11.61277954 26.09750259 -11.62619385 27.168638 -11.64001465 28.27223206 C-11.64529175 29.42335983 -11.65056885 30.57448761 -11.65600586 31.76049805 C-11.67062866 32.94630966 -11.68525146 34.13212128 -11.70031738 35.35386658 C-11.76263628 40.43078942 -11.80224409 45.50783401 -11.84399414 50.58496094 C-11.87766474 54.28943788 -11.92278895 57.99365342 -11.96850586 61.69799805 C-11.97378296 62.85115005 -11.97906006 64.00430206 -11.98449707 65.19239807 C-12.00461853 66.79437294 -12.00461853 66.79437294 -12.02514648 68.42871094 C-12.03243774 69.36928848 -12.039729 70.30986603 -12.04724121 71.27894592 C-12.31225586 73.6628418 -12.31225586 73.6628418 -14.31225586 76.6628418 C-17.81225586 76.9753418 -17.81225586 76.9753418 -21.31225586 76.6628418 C-27.07642134 70.89867631 -24.48323401 55.04880295 -24.49780273 47.11791992 C-24.49772217 46.19052002 -24.4976416 45.26312012 -24.49755859 44.30761719 C-24.49975938 41.47079771 -24.5180172 38.63435921 -24.53686523 35.79760742 C-24.53979771 33.9675306 -24.54178348 32.13745197 -24.54272461 30.30737305 C-24.54991013 29.47277054 -24.55709564 28.63816803 -24.5644989 27.77827454 C-24.53353675 19.71265882 -23.75146583 11.96087439 -18.31225586 5.6628418 C-12.45943161 0.82341142 -7.43989641 -0.06843118 0 0 Z " fill="#FDFDFD" transform="translate(99.312255859375,156.337158203125)"/>
</svg>
