<?xml version="1.0" encoding="UTF-8"?>
<svg version="1.1" xmlns="http://www.w3.org/2000/svg" width="121" height="108">
<path d="M0 0 C2.15749784 3.23624676 2.28360488 4.34394066 2.4140625 8.10546875 C2.47207031 9.57983398 2.47207031 9.57983398 2.53125 11.08398438 C2.5621875 12.10814453 2.593125 13.13230469 2.625 14.1875 C2.68300781 15.74114258 2.68300781 15.74114258 2.7421875 17.32617188 C2.83648296 19.88393622 2.92208202 22.44169287 3 25 C3.55985596 25.16604736 4.11971191 25.33209473 4.6965332 25.50317383 C7.2382604 26.26308252 9.77530445 27.03760201 12.3125 27.8125 C13.19357422 28.07353516 14.07464844 28.33457031 14.98242188 28.60351562 C15.82998047 28.86455078 16.67753906 29.12558594 17.55078125 29.39453125 C18.33106689 29.63018799 19.11135254 29.86584473 19.9152832 30.10864258 C22.22190638 31.09487999 23.43087674 32.05445553 25 34 C26.95814095 40.75284124 25.06872991 47.14783295 23.625 53.875 C23.39039063 55.02742188 23.15578125 56.17984375 22.9140625 57.3671875 C21.15438988 65.84561012 21.15438988 65.84561012 20 67 C15.65630306 67.29090544 11.30677071 67.31406483 6.95458984 67.35009766 C5.49186247 67.36662016 4.02921461 67.39386198 2.56689453 67.43212891 C0.4556297 67.48709731 -1.6537395 67.50880166 -3.765625 67.5234375 C-5.66489746 67.5531665 -5.66489746 67.5531665 -7.60253906 67.58349609 C-11.91840141 66.84226938 -13.2085957 65.29119234 -16 62 C-17.2411089 60.80994938 -18.48563876 59.62345092 -19.734375 58.44140625 C-21.07314039 57.14866914 -22.41167771 55.85569582 -23.75 54.5625 C-24.43449219 53.91990234 -25.11898437 53.27730469 -25.82421875 52.61523438 C-28.82317857 49.69050623 -30.75635591 47.74329103 -32.078125 43.7109375 C-32 41 -32 41 -30 38.0625 C-27 36 -27 36 -23.625 35.75 C-19.97465015 37.00874133 -18.85186332 37.88277773 -16.2734375 40.578125 C-15.65645996 41.2165332 -15.03948242 41.85494141 -14.40380859 42.51269531 C-13.94055176 43.00350586 -13.47729492 43.49431641 -13 44 C-12.98541748 42.8447583 -12.97083496 41.6895166 -12.95581055 40.49926758 C-12.89773178 36.20322088 -12.8204995 31.90769306 -12.73754883 27.61206055 C-12.70434451 25.7547245 -12.67629859 23.89728863 -12.65356445 22.03979492 C-12.61993558 19.36594202 -12.56761626 16.69300007 -12.51171875 14.01953125 C-12.50213387 12.7786248 -12.50213387 12.7786248 -12.49235535 11.51264954 C-12.37486944 6.88048894 -11.99899773 3.76288037 -9 0 C-5.85135005 -1.57432497 -3.35512575 -0.71895552 0 0 Z " fill="#FEFEFE" transform="translate(62,22)"/>
<path d="M0 0 C11.45469354 0.19749472 21.91676918 6.10922706 30 14 C29.42655063 16.86724686 29.1385485 17.8614515 27 20 C23.45359384 19.67010175 21.31596763 17.88591081 18.5625 15.75 C12.81499032 11.58327027 6.68346001 9.27321446 0 7 C0 4.69 0 2.38 0 0 Z " fill="#FBFBFB" transform="translate(69,25)"/>
<path d="M0 0 C0 2.31 0 4.62 0 7 C-0.76183594 7.27972656 -1.52367188 7.55945312 -2.30859375 7.84765625 C-8.80479598 10.36990206 -13.88343386 13.05356323 -19.0625 17.7421875 C-21 19 -21 19 -23.125 18.8203125 C-25 18 -25 18 -27 16 C-26.78531482 13.5136461 -26.30353966 12.31767713 -24.57421875 10.5078125 C-6.08564232 -3.04282116 -6.08564232 -3.04282116 0 0 Z " fill="#FBFBFB" transform="translate(46,26)"/>
</svg>
